<?xml version="1.0" encoding="utf-8"?> <!-- Generator: IcoMoon.io --> <!DOCTYPE svg PUBLIC "-//W3C//DTD SVG 1.1//EN" "http://www.w3.org/Graphics/SVG/1.1/DTD/svg11.dtd"> <svg version="1.1" id="Layer_1" xmlns="http://www.w3.org/2000/svg" xmlns:xlink="http://www.w3.org/1999/xlink" x="0px" y="0px" width="16" height="16" viewBox="0 0 16 16" enable-background="new 0 0 20 20" xml:space="preserve" fill="#000000"> <g><path d="M 13.5,14.4L 2.5,14.4 C 2.003,14.4, 1.6,13.997, 1.6,13.5L 1.6,2.5 C 1.6,2.003, 2.003,1.6, 2.5,1.6l 11,0 C 13.997,1.6, 14.4,2.003, 14.4,2.5l0,11 C 14.4,13.997, 13.997,14.4, 13.5,14.4z M 11.2,8.78l0-1.584 l-2.37,0 L 8.83,4.775 L 7.17,4.775 l0,2.42 L 4.8,7.195 l0,1.584 l 2.37,0 l0,2.37 l 1.659,0 l0-2.37 L 11.2,8.779 z"></path></g></svg>