<?xml version="1.0" encoding="utf-8"?> <!-- Generator: IcoMoon.io --> <!DOCTYPE svg PUBLIC "-//W3C//DTD SVG 1.1//EN" "http://www.w3.org/Graphics/SVG/1.1/DTD/svg11.dtd"> <svg version="1.1" id="Layer_1" xmlns="http://www.w3.org/2000/svg" xmlns:xlink="http://www.w3.org/1999/xlink" x="0px" y="0px" width="20" height="20" viewBox="0 0 20 20" enable-background="new 0 0 20 20" xml:space="preserve" fill="#4c4c4c"> <g><path d="M 16.875,18L 3.125,18 C 2.504,18, 2,17.496, 2,16.875L 2,3.125 C 2,2.504, 2.504,2, 3.125,2l 13.75,0 C 17.496,2, 18,2.504, 18,3.125l0,13.75 C 18,17.496, 17.496,18, 16.875,18z M 14,10.975l0-1.98 l-2.963,0 L 11.037,5.969 L 8.963,5.969 l0,3.025 L 6,8.994 l0,1.98 l 2.963,0 l0,2.963 l 2.074,0 l0-2.963 L 14,10.974 z"></path></g></svg>