<?xml version="1.0" encoding="utf-8"?>
<!-- Generator: Adobe Illustrator 16.0.0, SVG Export Plug-In . SVG Version: 6.00 Build 0)  -->
<!DOCTYPE svg PUBLIC "-//W3C//DTD SVG 1.1//EN" "http://www.w3.org/Graphics/SVG/1.1/DTD/svg11.dtd">
<svg version="1.1" id="Layer_1" xmlns="http://www.w3.org/2000/svg" xmlns:xlink="http://www.w3.org/1999/xlink" x="0px" y="0px"
	 width="20px" height="20px" viewBox="0 0 20 20" enable-background="new 0 0 20 20" xml:space="preserve">
<g>
	<polygon fill="#4C4C4C" points="18.504,6.338 13.836,6.567 16.401,2.563 13.693,1.004 11.504,5.224 9.366,1.072 6.656,2.687 
		9.157,6.639 4.513,6.473 4.489,9.687 9.143,9.396 7.496,12.072 7.496,12.996 10.355,12.996 11.474,10.741 13.628,14.953 
		16.359,13.3 13.858,9.348 18.502,9.513 	"/>
	<polygon fill-rule="evenodd" clip-rule="evenodd" fill="#4C4C4C" points="9.496,13.996 6.496,13.996 6.496,10.996 4.496,10.996 
		4.496,13.996 1.496,13.996 1.496,15.996 4.496,15.996 4.496,18.996 6.496,18.996 6.496,15.996 9.496,15.996 	"/>
</g>
</svg>
