<?xml version="1.0" encoding="utf-8"?> <!-- Generator: IcoMoon.io --> <!DOCTYPE svg PUBLIC "-//W3C//DTD SVG 1.1//EN" "http://www.w3.org/Graphics/SVG/1.1/DTD/svg11.dtd"> <svg version="1.1" id="Layer_1" xmlns="http://www.w3.org/2000/svg" xmlns:xlink="http://www.w3.org/1999/xlink" x="0px" y="0px" width="20" height="20" viewBox="0 0 20 20" enable-background="new 0 0 20 20" xml:space="preserve" fill="#4c4c4c"> <g><path d="M 2.113,9.93C 2.11,9.938, 2.109,9.945, 2.106,9.952C 2.039,10.123, 2,10.307, 2,10.5s 0.039,0.377, 0.106,0.548 c 0.003,0.007, 0.004,0.015, 0.007,0.022c 0.076,0.186, 0.188,0.353, 0.328,0.492l 4.998,4.998c 0.586,0.586, 1.535,0.586, 2.121,0 c 0.586-0.584, 0.586-1.535,0-2.121L 7.121,12L 16.5,12 c 0.828,0, 1.5-0.671, 1.5-1.5S 17.328,9, 16.5,9L 7.121,9 L 9.56,6.561 c 0.586-0.585, 0.586-1.536,0-2.121C 9.268,4.146, 8.884,4, 8.5,4S 7.732,4.146, 7.439,4.439L 2.441,9.438 C 2.301,9.577, 2.189,9.745, 2.113,9.93z"></path></g></svg>