<?xml version="1.0" encoding="utf-8"?> <!-- Generator: IcoMoon.io --> <!DOCTYPE svg PUBLIC "-//W3C//DTD SVG 1.1//EN" "http://www.w3.org/Graphics/SVG/1.1/DTD/svg11.dtd"> <svg version="1.1" id="Layer_1" xmlns="http://www.w3.org/2000/svg" xmlns:xlink="http://www.w3.org/1999/xlink" x="0px" y="0px" width="16" height="16" viewBox="0 0 16 16" enable-background="new 0 0 20 20" xml:space="preserve" fill="#000000"> <g><path d="M 13.6,14.4L 2.4,14.4 c-0.442,0-0.8-0.358-0.8-0.8L 1.6,2.4 c0-0.442, 0.358-0.8, 0.8-0.8l 11.2,0 c 0.442,0, 0.8,0.358, 0.8,0.8l0,11.2 C 14.4,14.042, 14.042,14.4, 13.6,14.4z M 10.8,6.4L 9.6,5.2l-1.6,1.6l-1.6-1.6L 5.2,6.4l 1.6,1.6l-1.6,1.6L 6.4,10.8l 1.6-1.6l 1.6,1.6l 1.2-1.2l-1.6-1.6L 10.8,6.4z"></path></g></svg>