<?xml version="1.0" encoding="utf-8"?> <!-- Generator: IcoMoon.io --> <!DOCTYPE svg PUBLIC "-//W3C//DTD SVG 1.1//EN" "http://www.w3.org/Graphics/SVG/1.1/DTD/svg11.dtd"> <svg version="1.1" id="Layer_1" xmlns="http://www.w3.org/2000/svg" xmlns:xlink="http://www.w3.org/1999/xlink" x="0px" y="0px" width="20" height="20" viewBox="0 0 20 20" enable-background="new 0 0 20 20" xml:space="preserve" fill="#4c4c4c"> <g><path d="M 16.243,9.079c 0.052,0.259, 0.078,0.568, 0.078,0.926 c0,0.358-0.026,0.667-0.078,0.926l 1.619,1.333c 0.13,0.086, 0.162,0.203, 0.098,0.352c-0.325,0.951-0.858,1.828-1.6,2.63 c-0.104,0.124-0.229,0.155-0.371,0.093l-2.029-0.667c-0.52,0.396-1.079,0.704-1.678,0.927l-0.409,2 c-0.026,0.146-0.117,0.234-0.273,0.258c-0.56,0.1-1.093,0.148-1.6,0.148s-1.041-0.049-1.6-0.148 c-0.156-0.023-0.247-0.111-0.273-0.258l-0.409-2c-0.638-0.234-1.197-0.544-1.678-0.927l-2.029,0.667 C 3.867,15.4, 3.744,15.369, 3.64,15.245c-0.741-0.802-1.274-1.679-1.6-2.63c-0.065-0.148-0.032-0.266, 0.098-0.352l 1.619-1.333 c-0.052-0.259-0.078-0.567-0.078-0.926c0-0.358, 0.026-0.667, 0.078-0.926L 2.138,7.745C 2.008,7.659, 1.975,7.542, 2.040,7.393 c 0.325-0.95, 0.858-1.827, 1.6-2.629c 0.104-0.123, 0.228-0.154, 0.371-0.093L 6.040,5.338c 0.48-0.383, 1.040-0.691, 1.678-0.926l 0.409-2 C 8.153,2.264, 8.244,2.177, 8.4,2.153c 1.066-0.21, 2.133-0.21, 3.199,0c 0.156,0.024, 0.247,0.111, 0.273,0.259l 0.409,2 c 0.599,0.223, 1.158,0.531, 1.678,0.926l 2.029-0.667c 0.143-0.062, 0.267-0.030, 0.371,0.093c 0.741,0.803, 1.274,1.679, 1.6,2.629 c 0.064,0.148, 0.032,0.266-0.098,0.352L 16.243,9.079z M 10,6.004c-2.209,0-4,1.791-4,4c0,2.208, 1.791,4, 4,4s 4-1.791, 4-4 C 14,7.795, 12.209,6.004, 10,6.004z"></path></g></svg>