<?xml version="1.0" encoding="utf-8"?>
<!-- Generator: Adobe Illustrator 17.0.0, SVG Export Plug-In . SVG Version: 6.00 Build 0)  -->
<!DOCTYPE svg PUBLIC "-//W3C//DTD SVG 1.1//EN" "http://www.w3.org/Graphics/SVG/1.1/DTD/svg11.dtd">
<svg version="1.1" id="Layer_1" xmlns="http://www.w3.org/2000/svg" xmlns:xlink="http://www.w3.org/1999/xlink" x="0px" y="0px"
	 width="16px" height="16px" viewBox="0 0 16 16" enable-background="new 0 0 16 16" xml:space="preserve">
<path display="none" fill="#4C4C4C" d="M13,8h-2V7.95c1.141-0.232,2-1.24,2-2.45C13,4.119,11.881,3,10.5,3S8,4.119,8,5.5
	c0,1.21,0.859,2.218,2,2.45V8H7C6.45,8,6,8.45,6,9v2v2v1h1h7h1v-1v-2v-1C15,9,14,8,13,8z"/>
<path display="none" fill="#FFFFFF" d="M7,8H5V7.95C6.141,7.718,7,6.71,7,5.5C7,4.119,5.881,3,4.5,3S2,4.119,2,5.5
	c0,1.21,0.859,2.218,2,2.45V8H1C0.45,8,0,8.45,0,9v2v2v1h1h7h1v-1l-1-2l-1-1C7,9.45,7.55,8,7,8z"/>
<path display="none" fill="#4C4C4C" d="M7,10H4V9.95C5.141,9.718,6,8.71,6,7.5C6,6.119,4.881,5,3.5,5S1,6.119,1,7.5
	c0,1.21,0.859,2.218,2,2.45V10H0c-0.55,0-1,0.45-1,1v2v2v1h1h7h1v-1v-2v-2C8,10.45,7.55,10,7,10z"/>
<path fill="#4C4C4C" d="M6,10H4V9.95C5.141,9.718,6,8.71,6,7.5C6,6.119,4.881,5,3.5,5S1,6.119,1,7.5c0,1.21,0.859,2.218,2,2.45V10H1
	c-1,0-2,1-2,2v4h9v-4C8,11,7,10,6,10z"/>
<path fill="#4C4C4C" d="M7,9V8h2V7.95C7.859,7.718,7,6.71,7,5.5C7,4.119,8.119,3,9.5,3S12,4.119,12,5.5c0,1.21-0.859,2.218-2,2.45V8
	h2c1,0,2,1,2,2v4H9c0,0,0-2.266,0-3C9,10.188,8,9,7,9z"/>
</svg>
