<?xml version="1.0" encoding="utf-8"?>
<!-- Generator: Adobe Illustrator 17.0.0, SVG Export Plug-In . SVG Version: 6.00 Build 0)  -->
<!DOCTYPE svg PUBLIC "-//W3C//DTD SVG 1.1//EN" "http://www.w3.org/Graphics/SVG/1.1/DTD/svg11.dtd">
<svg version="1.1" id="Layer_1" xmlns="http://www.w3.org/2000/svg" xmlns:xlink="http://www.w3.org/1999/xlink" x="0px" y="0px"
	 width="16px" height="16px" viewBox="0.5 16.5 16 16" enable-background="new 0.5 16.5 16 16" xml:space="preserve">
<path id="Rear_Lock" fill="#4C4C4C" d="M14.743,23.25h-0.75V21c0-1.657-1.343-3-3-3c-1.11,0-1.974,0.414-2.493,1.31
	c0.477,0.21,0.883,0.543,1.191,0.956c0.217-0.561,0.665-0.766,1.302-0.766c0.827,0,1.5,0.673,1.5,1.5v2.25H10.5v1.25h0.25
	c0.415,0,0.75,0.335,0.75,0.75V30h3.243c0.415,0,0.75-0.335,0.75-0.75V24C15.493,23.585,15.158,23.25,14.743,23.25z"/>
<path id="Front_Lock_3_" fill="#4C4C4C" d="M9.75,25.75H9V23.5c0-1.657-1.343-3-3-3s-3,1.343-3,3v2.25H2.25
	c-0.415,0-0.75,0.335-0.75,0.75v5.25c0,0.415,0.335,0.75,0.75,0.75h7.5c0.415,0,0.75-0.335,0.75-0.75V26.5
	C10.5,26.085,10.165,25.75,9.75,25.75z M6.75,30.5h-1.5v-3h1.5V30.5z M4.5,25.75V23.5C4.5,22.673,5.173,22,6,22s1.5,0.673,1.5,1.5
	v2.25H4.5z"/>
</svg>
