<?xml version="1.0" encoding="utf-8"?>
<!-- Generator: Adobe Illustrator 16.0.0, SVG Export Plug-In . SVG Version: 6.00 Build 0)  -->
<!DOCTYPE svg PUBLIC "-//W3C//DTD SVG 1.1//EN" "http://www.w3.org/Graphics/SVG/1.1/DTD/svg11.dtd">
<svg version="1.1" id="Layer_1" xmlns="http://www.w3.org/2000/svg" xmlns:xlink="http://www.w3.org/1999/xlink" x="0px" y="0px"
	 width="20px" height="20px" viewBox="0 0 20 20" enable-background="new 0 0 20 20" xml:space="preserve">
<g>
	<path fill="#4C4C4C" d="M16,4v9H7V4H16 M17,2L17,2H6C5.447,2,5,2.448,5,3v11c0,0.553,0.447,1,1,1h11c0.553,0,1-0.447,1-1V3
		C18,2.448,17.553,2,17,2"/>
	<path fill="#4C4C4C" d="M13,15v1H4V7h1V5H3C2.447,5,2,5.448,2,6v11c0,0.553,0.447,1,1,1h11c0.553,0,1-0.447,1-1v-2H13z"/>
</g>
</svg>
