<?xml version="1.0" encoding="utf-8"?>
<!-- Generator: Adobe Illustrator 16.0.0, SVG Export Plug-In . SVG Version: 6.00 Build 0)  -->
<!DOCTYPE svg PUBLIC "-//W3C//DTD SVG 1.1//EN" "http://www.w3.org/Graphics/SVG/1.1/DTD/svg11.dtd">
<svg version="1.1" id="Layer_1" xmlns="http://www.w3.org/2000/svg" xmlns:xlink="http://www.w3.org/1999/xlink" x="0px" y="0px"
	 width="20px" height="20px" viewBox="0 0 20 20" enable-background="new 0 0 20 20" xml:space="preserve">
<g>
	<path fill="#4C4C4C" d="M8.5,15h-1V8h1V15z"/>
	<path fill="#4C4C4C" d="M12.5,15h-1V8h1V15z"/>
	<path fill="#4C4C4C" d="M10.5,15h-1V8h1V15z"/>
	<path fill="#4C4C4C" d="M17.5,5h-2V3c0-0.552-0.447-1-1-1h-9c-0.553,0-1,0.448-1,1v2h-2v2h1v10c0,0.553,0.447,1,1,1h11
		c0.553,0,1-0.447,1-1V7h1V5z M6.5,4h7v1h-7V4z M14.5,16h-9V7h9V16z"/>
</g>
</svg>
