<?xml version="1.0" encoding="utf-8"?> <!-- Generator: IcoMoon.io --> <!DOCTYPE svg PUBLIC "-//W3C//DTD SVG 1.1//EN" "http://www.w3.org/Graphics/SVG/1.1/DTD/svg11.dtd"> <svg version="1.1" id="Layer_1" xmlns="http://www.w3.org/2000/svg" xmlns:xlink="http://www.w3.org/1999/xlink" x="0px" y="0px" width="20" height="20" viewBox="0 0 20 20" enable-background="new 0 0 20 20" xml:space="preserve" fill="#4c4c4c"> <g><path d="M 10,2c-4.418,0-8,3.582-8,8s 3.582,8, 8,8s 8-3.582, 8-8 S 14.418,2, 10,2z M 3.979,10c0-3.141, 2.88-6.021, 6.021-6.021c 1.236,0, 2.429,0.451, 3.425,1.184l-8.263,8.261 C 4.43,12.429, 3.979,11.236, 3.979,10z M 10,16.021c-1.236,0-2.428-0.45-3.424-1.183l 8.262-8.262C 15.57,7.572, 16.021,8.765, 16.021,10 C 16.021,13.142, 13.141,16.021, 10,16.021z"></path></g></svg>