<?xml version="1.0" encoding="utf-8"?>
<!-- Generator: Adobe Illustrator 16.0.0, SVG Export Plug-In . SVG Version: 6.00 Build 0)  -->
<!DOCTYPE svg PUBLIC "-//W3C//DTD SVG 1.1//EN" "http://www.w3.org/Graphics/SVG/1.1/DTD/svg11.dtd">
<svg version="1.1" id="Layer_1" xmlns="http://www.w3.org/2000/svg" xmlns:xlink="http://www.w3.org/1999/xlink" x="0px" y="0px"
	 width="20px" height="20px" viewBox="0 0 20 20" enable-background="new 0 0 20 20" xml:space="preserve">
<g>
	<path fill="#4C4C4C" d="M16.731,3.268c-1.479-1.48-2.59-1.259-2.59-1.259L8.957,7.193l-5.924,5.923l-1.036,4.887l4.887-1.036
		l5.924-5.923l5.184-5.184C17.991,5.86,18.214,4.749,16.731,3.268z M6.593,16.379l-1.665,0.358
		c-0.161-0.301-0.355-0.601-0.709-0.956c-0.354-0.354-0.655-0.547-0.956-0.707l0.36-1.667l0.48-0.481c0,0,0.907,0.02,1.93,1.042
		c1.024,1.024,1.043,1.931,1.043,1.931L6.593,16.379z"/>
</g>
</svg>
