<?xml version="1.0" encoding="utf-8"?>
<!-- Generator: Adobe Illustrator 16.0.0, SVG Export Plug-In . SVG Version: 6.00 Build 0)  -->
<!DOCTYPE svg PUBLIC "-//W3C//DTD SVG 1.1//EN" "http://www.w3.org/Graphics/SVG/1.1/DTD/svg11.dtd">
<svg version="1.1" id="Layer_1" xmlns="http://www.w3.org/2000/svg" xmlns:xlink="http://www.w3.org/1999/xlink" x="0px" y="0px"
	 width="20px" height="20px" viewBox="0 0 20 20" enable-background="new 0 0 20 20" xml:space="preserve">
<g>
	<path fill="#4C4C4C" d="M17.355,5.271h-4.203V4.221c0-0.578-0.473-1.051-1.051-1.051H7.898c-0.578,0-1.051,0.473-1.051,1.051v1.051
		H2.645c-0.578,0-1.051,0.473-1.051,1.051v9.457c0,0.578,0.473,1.051,1.051,1.051h14.711c0.578,0,1.051-0.473,1.051-1.051V6.322
		C18.406,5.745,17.934,5.271,17.355,5.271z M7.898,4.222c0.001,0,0.001-0.001,0.001-0.001h4.2c0.001,0.001,0.002,0.001,0.002,0.001
		v1.049H7.898V4.222z M17.355,9.475h-2.102v1.576c0,0.289-0.236,0.525-0.525,0.525h-1.051c-0.289,0-0.525-0.236-0.525-0.525V9.475
		H6.848v1.576c0,0.289-0.236,0.525-0.525,0.525H5.271c-0.289,0-0.525-0.236-0.525-0.525V9.475H2.645V8.424h14.711V9.475z"/>
</g>
</svg>
