<?xml version="1.0" encoding="utf-8"?>
<!-- Generator: Adobe Illustrator 16.0.0, SVG Export Plug-In . SVG Version: 6.00 Build 0)  -->
<!DOCTYPE svg PUBLIC "-//W3C//DTD SVG 1.1//EN" "http://www.w3.org/Graphics/SVG/1.1/DTD/svg11.dtd">
<svg version="1.1" id="Layer_1" xmlns="http://www.w3.org/2000/svg" xmlns:xlink="http://www.w3.org/1999/xlink" x="0px" y="0px"
	 width="20px" height="20px" viewBox="0 0 20 20" enable-background="new 0 0 20 20" xml:space="preserve">
<g>
	<path fill-rule="evenodd" clip-rule="evenodd" fill="#4C4C4C" d="M16.211,8.734c-0.494,0-0.938,0.006-1.381-0.002
		c-0.508-0.01-0.828-0.3-0.828-0.734C14,7.562,14.32,7.263,14.824,7.255c0.676-0.009,1.352-0.009,2.029,0
		c0.547,0.007,0.834,0.281,0.836,0.818c0.006,2.904,0.014,5.809-0.004,8.713c-0.006,1.17-0.91,2.073-2.092,2.081
		c-3.703,0.018-7.407,0.017-11.111,0.003c-1.168-0.005-2.002-0.785-2.146-1.936c-0.023-0.197-0.03-0.398-0.03-0.598
		C2.304,12.972,2.304,9.607,2.304,6.242c0-0.927,0.201-1.125,1.142-1.125c1.629,0,3.258-0.001,4.887,0
		c0.756,0,0.977,0.223,0.984,0.993c0.004,0.367,0.001,0.733,0.001,1.091c0.732,0.13,1.025,0.385,0.996,0.835
		c-0.032,0.486-0.366,0.696-1.101,0.697c-0.812,0-1.626,0-2.512,0c0,2.888,0,5.752,0,8.662c0.09,0,0.24,0,0.392,0
		c2.721,0,5.44,0,8.159,0c0.77,0,0.959-0.19,0.959-0.943C16.213,13.901,16.211,11.352,16.211,8.734z M7.818,6.627
		c-1.36,0-2.673,0-4.032,0c0,0.18,0,0.33,0,0.479c0,3.07,0,6.141,0.001,9.212c0,0.754,0.203,1.06,0.708,1.073
		c0.522,0.016,0.729-0.293,0.729-1.09c0-2.719-0.002-5.436,0.001-8.153c0.001-0.644,0.247-0.891,0.887-0.896
		c0.563-0.004,1.127,0,1.706,0C7.818,7.02,7.818,6.84,7.818,6.627z"/>
	<path fill-rule="evenodd" clip-rule="evenodd" fill="#4C4C4C" d="M11.332,3.727c-0.25,0.262-0.49,0.534-0.75,0.784
		c-0.401,0.382-0.818,0.405-1.138,0.084c-0.323-0.325-0.3-0.743,0.088-1.135c0.666-0.679,1.339-1.353,2.019-2.021
		c0.438-0.429,0.797-0.423,1.232,0.008c0.678,0.669,1.35,1.341,2.018,2.02c0.383,0.386,0.412,0.822,0.09,1.134
		c-0.326,0.317-0.746,0.288-1.137-0.1c-0.248-0.249-0.479-0.517-0.809-0.876c-0.018,0.285-0.031,0.427-0.031,0.569
		c0,1.719,0,6.808,0,8.527c0,0.123,0.006,0.246-0.002,0.368c-0.023,0.494-0.326,0.821-0.754,0.817
		c-0.43-0.006-0.721-0.329-0.721-0.832c-0.006-1.828-0.004-7.023-0.004-8.851c0-0.146,0-0.293,0-0.44
		C11.4,3.764,11.367,3.746,11.332,3.727z"/>
</g>
</svg>
