<?xml version="1.0" encoding="utf-8"?>
<!-- Generator: Adobe Illustrator 16.0.0, SVG Export Plug-In . SVG Version: 6.00 Build 0)  -->
<!DOCTYPE svg PUBLIC "-//W3C//DTD SVG 1.1//EN" "http://www.w3.org/Graphics/SVG/1.1/DTD/svg11.dtd">
<svg version="1.1" id="Layer_1" xmlns="http://www.w3.org/2000/svg" xmlns:xlink="http://www.w3.org/1999/xlink" x="0px" y="0px"
	 width="20px" height="20px" viewBox="0 0 20 20" enable-background="new 0 0 20 20" xml:space="preserve">
<g>
	<path fill="#4C4C4C" d="M12.999,11.298c-0.034-0.02-0.067-0.037-0.102-0.057c0-0.146,0-0.293,0-0.439
		c0-1.827,0.003-7.023-0.003-8.85c0-0.503-0.291-0.827-0.722-0.832c-0.426-0.005-0.73,0.323-0.753,0.817
		c-0.007,0.123-0.003,0.245-0.003,0.368c0,1.719,0,6.809,0,8.528c0,0.143-0.014,0.283-0.029,0.569
		c-0.33-0.359-0.561-0.628-0.81-0.876c-0.392-0.387-0.812-0.417-1.137-0.101C9.12,10.737,9.147,11.174,9.53,11.56
		c0.669,0.678,1.341,1.351,2.018,2.019c0.436,0.432,0.795,0.437,1.233,0.008c0.679-0.668,1.353-1.342,2.019-2.021
		c0.388-0.393,0.411-0.81,0.088-1.134c-0.32-0.322-0.737-0.299-1.138,0.084C13.489,10.765,13.249,11.036,12.999,11.298z"/>
	<path fill-rule="evenodd" clip-rule="evenodd" fill="#4C4C4C" d="M16.211,8.734c-0.495,0-0.938,0.006-1.38-0.002
		c-0.508-0.01-0.829-0.3-0.83-0.734c-0.002-0.436,0.318-0.734,0.823-0.742c0.676-0.009,1.351-0.009,2.029,0
		c0.546,0.007,0.835,0.281,0.836,0.818c0.005,2.904,0.014,5.81-0.003,8.713c-0.007,1.171-0.912,2.074-2.093,2.082
		c-3.703,0.017-7.406,0.017-11.11,0.002c-1.169-0.004-2.002-0.784-2.147-1.936c-0.024-0.197-0.031-0.397-0.031-0.597
		c-0.002-3.366-0.002-6.73-0.001-10.096c0-0.927,0.202-1.125,1.141-1.125c1.629,0,3.258-0.001,4.887,0
		c0.755,0,0.977,0.223,0.985,0.993c0.004,0.367,0.001,0.733,0.001,1.091c0.733,0.13,1.024,0.385,0.995,0.835
		c-0.031,0.486-0.365,0.696-1.1,0.697c-0.812,0-1.625,0-2.512,0c0,2.889,0,5.753,0,8.662c0.089,0,0.24,0,0.391,0
		c2.72,0,5.44,0,8.159,0c0.77,0,0.959-0.19,0.959-0.943C16.212,13.901,16.211,11.352,16.211,8.734z M7.818,6.628
		c-1.361,0-2.674,0-4.033,0c0,0.179,0,0.329,0,0.479c0,3.07,0,6.141,0.001,9.212c0,0.754,0.203,1.06,0.708,1.074
		c0.521,0.016,0.729-0.293,0.729-1.091c0-2.719-0.001-5.436,0.001-8.153c0-0.644,0.247-0.891,0.887-0.896
		c0.563-0.004,1.127,0,1.707,0C7.818,7.02,7.818,6.84,7.818,6.628z"/>
	<path fill-rule="evenodd" clip-rule="evenodd" fill="#4C4C4C" d="M12.999,11.298c0.25-0.262,0.49-0.533,0.751-0.782
		c0.4-0.383,0.817-0.406,1.138-0.084c0.323,0.324,0.3,0.741-0.088,1.134c-0.666,0.679-1.34,1.353-2.019,2.021
		c-0.438,0.429-0.798,0.424-1.233-0.008c-0.677-0.668-1.349-1.341-2.018-2.019c-0.383-0.386-0.41-0.822-0.089-1.135
		c0.326-0.316,0.746-0.286,1.137,0.101c0.249,0.248,0.479,0.517,0.81,0.876c0.016-0.286,0.029-0.427,0.029-0.569
		c0-1.719,0-6.809,0-8.528c0-0.123-0.004-0.245,0.003-0.368c0.022-0.494,0.327-0.822,0.753-0.817
		c0.431,0.005,0.722,0.329,0.722,0.832c0.006,1.827,0.003,7.023,0.003,8.85c0,0.146,0,0.294,0,0.439
		C12.932,11.261,12.965,11.278,12.999,11.298z"/>
</g>
</svg>
