<?xml version="1.0" encoding="utf-8"?> <!-- Generator: IcoMoon.io --> <!DOCTYPE svg PUBLIC "-//W3C//DTD SVG 1.1//EN" "http://www.w3.org/Graphics/SVG/1.1/DTD/svg11.dtd"> <svg version="1.1" id="Layer_1" xmlns="http://www.w3.org/2000/svg" xmlns:xlink="http://www.w3.org/1999/xlink" x="0px" y="0px" width="16" height="16" viewBox="0 0 16 16" enable-background="new 0 0 20 20" xml:space="preserve" fill="#000000"> <g><path d="M 12.4,1.6l-8.8,0 C 2.941,1.6, 2.4,2.14, 2.4,2.8l0,10.4 C 2.4,13.859, 2.941,14.4, 3.6,14.4l 8.8,0 c 0.659,0, 1.2-0.541, 1.2-1.2l0-10.4 C 13.6,2.14, 13.059,1.6, 12.4,1.6z M 12,12.8L 4,12.8 L 4,3.2 l 8,0 L 12,12.8 z M 5.6,8.8l 4.8,0 l0,0.8 L 5.6,9.6 L 5.6,8.8 z M 5.6,10.4l 4.8,0 l0,0.8 L 5.6,11.2 L 5.6,10.4 z M 7.040,4.96c0,0.53, 0.43,0.96, 0.96,0.96 s 0.96-0.43, 0.96-0.96C 8.96,4.43, 8.53,4, 8,4S 7.040,4.43, 7.040,4.96z M 8.64,5.92L 7.36,5.92 C 6.832,5.92, 6.4,6.208, 6.4,6.56L 6.4,8 l 3.2,0 L 9.6,6.56 C 9.6,6.208, 9.168,5.92, 8.64,5.92z"></path></g></svg>