<?xml version="1.0" encoding="utf-8"?> <!-- Generator: IcoMoon.io --> <!DOCTYPE svg PUBLIC "-//W3C//DTD SVG 1.1//EN" "http://www.w3.org/Graphics/SVG/1.1/DTD/svg11.dtd"> <svg version="1.1" id="Layer_1" xmlns="http://www.w3.org/2000/svg" xmlns:xlink="http://www.w3.org/1999/xlink" x="0px" y="0px" width="20" height="20" viewBox="0 0 20 20" enable-background="new 0 0 20 20" xml:space="preserve" fill="#4c4c4c"> <g><path d="M 15.5,2l-11,0 C 3.676,2, 3,2.675, 3,3.5l0,13 C 3,17.324, 3.676,18, 4.5,18l 11,0 c 0.824,0, 1.5-0.676, 1.5-1.5l0-13 C 17,2.675, 16.324,2, 15.5,2z M 15,16L 5,16 L 5,4 l 10,0 L 15,16 z M 7,11l 6,0 l0,1 L 7,12 L 7,11 z M 7,13l 6,0 l0,1 L 7,14 L 7,13 z M 8.8,6.2c0,0.663, 0.537,1.2, 1.2,1.2 s 1.2-0.537, 1.2-1.2C 11.2,5.537, 10.663,5, 10,5S 8.8,5.537, 8.8,6.2z M 10.8,7.4L 9.2,7.4 C 8.54,7.4, 8,7.76, 8,8.2L 8,10 l 4,0 L 12,8.2 C 12,7.76, 11.46,7.4, 10.8,7.4z" style='fill:#ffffff'></path></g></svg>
