<?xml version="1.0" encoding="utf-8"?> <!-- Generator: IcoMoon.io --> <!DOCTYPE svg PUBLIC "-//W3C//DTD SVG 1.1//EN" "http://www.w3.org/Graphics/SVG/1.1/DTD/svg11.dtd"> <svg version="1.1" id="Layer_1" xmlns="http://www.w3.org/2000/svg" xmlns:xlink="http://www.w3.org/1999/xlink" x="0px" y="0px" width="16" height="16" viewBox="0 0 16 16" enable-background="new 0 0 20 20" xml:space="preserve" fill="#000000"> <g><path d="M 8,4.014c-0.883,0-1.6,0.628-1.6,1.4l0,1.050 L 6,6.463 C 5.78,6.463, 5.6,6.621, 5.6,6.814l0,2.45 c0,0.192, 0.18,0.35, 0.4,0.35l 4,0 c 0.22,0, 0.4-0.158, 0.4-0.35L 10.4,6.814 c0-0.192-0.18-0.35-0.4-0.35L 9.6,6.463 L 9.6,5.414 C 9.6,4.641, 8.883,4.014, 8,4.014z M 8.8,6.463L 7.2,6.463 L 7.2,5.414 c0-0.386, 0.358-0.7, 0.8-0.7s 0.8,0.314, 0.8,0.7L 8.8,6.463 z M 12.526,2.682 c-2.495-2.486-6.556-2.486-9.051,0C 2.266,3.886, 1.6,5.487, 1.6,7.191s 0.666,3.305, 1.874,4.51l 1.132-1.127 C 3.699,9.67, 3.2,8.469, 3.2,7.191s 0.499-2.478, 1.406-3.382c 1.871-1.866, 4.917-1.866, 6.787,0c 1.872,1.865, 1.872,4.9,0,6.765 c-0.743,0.742-1.687,1.209-2.711,1.352l0-1.070 c0-0.108-0.044-0.209-0.117-0.282c-0.030-0.030-0.066-0.057-0.107-0.076 c-0.138-0.067-0.301-0.050-0.421,0.043l-2.546,1.973c-0.014,0.011-0.026,0.022-0.037,0.033c-0.075,0.075-0.117,0.177-0.117,0.283 s 0.042,0.207, 0.117,0.282c 0.012,0.012, 0.023,0.022, 0.037,0.033l 2.546,1.974c 0.12,0.093, 0.283,0.11, 0.421,0.044 c 0.041-0.020, 0.077-0.046, 0.107-0.077c 0.074-0.074, 0.117-0.175, 0.117-0.282l0-1.27 c 1.451-0.151, 2.796-0.788, 3.843-1.831 C 15.021,9.214, 15.021,5.168, 12.526,2.682z"></path></g></svg>