<?xml version="1.0" encoding="utf-8"?> <!-- Generator: IcoMoon.io --> <!DOCTYPE svg PUBLIC "-//W3C//DTD SVG 1.1//EN" "http://www.w3.org/Graphics/SVG/1.1/DTD/svg11.dtd"> <svg version="1.1" id="Layer_1" xmlns="http://www.w3.org/2000/svg" xmlns:xlink="http://www.w3.org/1999/xlink" x="0px" y="0px" width="20" height="20" viewBox="0 0 20 20" enable-background="new 0 0 20 20" xml:space="preserve" fill="#4c4c4c"> <g><path d="M 10,5.017c-1.104,0-2,0.785-2,1.75l0,1.312 L 7.5,8.079 C 7.225,8.079, 7,8.276, 7,8.517l0,3.062 c0,0.24, 0.225,0.438, 0.5,0.438l 5,0 c 0.275,0, 0.5-0.197, 0.5-0.438L 13,8.517 c0-0.24-0.225-0.438-0.5-0.438L 12,8.079 L 12,6.767 C 12,5.801, 11.104,5.017, 10,5.017z M 11,8.079L 9,8.079 L 9,6.767 c0-0.482, 0.448-0.875, 1-0.875s 1,0.393, 1,0.875L 11,8.079 z M 15.657,3.352 c-3.119-3.108-8.195-3.108-11.314,0C 2.832,4.857, 2,6.859, 2,8.989s 0.832,4.131, 2.343,5.637l 1.415-1.409 C 4.624,12.087, 4,10.586, 4,8.989s 0.624-3.098, 1.758-4.228c 2.339-2.332, 6.146-2.332, 8.484,0c 2.34,2.331, 2.34,6.125,0,8.456 c-0.929,0.927-2.109,1.511-3.389,1.69l0-1.338 c0-0.135-0.055-0.261-0.146-0.353c-0.038-0.038-0.083-0.071-0.134-0.095 c-0.172-0.084-0.376-0.062-0.526,0.054l-3.183,2.466c-0.017,0.014-0.032,0.027-0.046,0.041c-0.094,0.094-0.146,0.221-0.146,0.354 s 0.053,0.259, 0.146,0.352c 0.015,0.015, 0.029,0.028, 0.046,0.041l 3.183,2.467c 0.15,0.116, 0.354,0.138, 0.526,0.055 c 0.051-0.025, 0.096-0.058, 0.134-0.096c 0.092-0.092, 0.146-0.219, 0.146-0.353l0-1.587 c 1.814-0.189, 3.495-0.985, 4.804-2.289 C 18.776,11.518, 18.776,6.46, 15.657,3.352z" style='fill:#ffffff'></path></g></svg>
