<?xml version="1.0" encoding="utf-8"?>
<!-- Generator: Adobe Illustrator 16.0.0, SVG Export Plug-In . SVG Version: 6.00 Build 0)  -->
<!DOCTYPE svg PUBLIC "-//W3C//DTD SVG 1.1//EN" "http://www.w3.org/Graphics/SVG/1.1/DTD/svg11.dtd">
<svg version="1.1" id="Layer_1" xmlns="http://www.w3.org/2000/svg" xmlns:xlink="http://www.w3.org/1999/xlink" x="0px" y="0px"
	 width="20px" height="20px" viewBox="0 0 20 20" enable-background="new 0 0 20 20" xml:space="preserve">
<g>
	<path fill="#4C4C4C" d="M8.125,11.25c0.345,0,0.625-0.279,0.625-0.625C8.75,10.279,8.47,10,8.125,10S7.5,10.279,7.5,10.625
		C7.5,10.971,7.78,11.25,8.125,11.25z M10,8.75c0.346,0,0.625-0.279,0.625-0.625S10.346,7.5,10,7.5S9.375,7.779,9.375,8.125
		S9.654,8.75,10,8.75z M8.125,6.25c0.345,0,0.625-0.279,0.625-0.625S8.47,5,8.125,5S7.5,5.279,7.5,5.625S7.78,6.25,8.125,6.25z
		 M11.875,6.25c0.346,0,0.625-0.279,0.625-0.625S12.221,5,11.875,5S11.25,5.279,11.25,5.625S11.529,6.25,11.875,6.25z M6.25,8.75
		c0.345,0,0.625-0.279,0.625-0.625S6.595,7.5,6.25,7.5S5.625,7.779,5.625,8.125S5.905,8.75,6.25,8.75z M15.625,6.25
		c0.346,0,0.625-0.279,0.625-0.625S15.971,5,15.625,5S15,5.279,15,5.625S15.279,6.25,15.625,6.25z M13.75,8.75
		c0.346,0,0.625-0.279,0.625-0.625S14.096,7.5,13.75,7.5s-0.625,0.279-0.625,0.625S13.404,8.75,13.75,8.75z M11.875,11.25
		c0.346,0,0.625-0.279,0.625-0.625c0-0.346-0.279-0.625-0.625-0.625s-0.625,0.279-0.625,0.625
		C11.25,10.971,11.529,11.25,11.875,11.25z M16.875,7.5c-0.346,0-0.625,0.279-0.625,0.625s0.279,0.625,0.625,0.625
		S17.5,8.471,17.5,8.125S17.221,7.5,16.875,7.5z M18.75,2.5H1.25C0.56,2.5,0,3.06,0,3.75v12.5c0,0.689,0.56,1.25,1.25,1.25h17.5
		c0.689,0,1.25-0.561,1.25-1.25V3.75C20,3.06,19.439,2.5,18.75,2.5z M18.75,15.625c0,0.346-0.279,0.625-0.625,0.625H1.875
		c-0.345,0-0.625-0.279-0.625-0.625V4.375c0-0.346,0.28-0.625,0.625-0.625h16.25c0.346,0,0.625,0.279,0.625,0.625V15.625z
		 M14.375,13.75h-8.75C5.28,13.75,5,14.029,5,14.375S5.28,15,5.625,15h8.75C14.721,15,15,14.721,15,14.375
		S14.721,13.75,14.375,13.75z M3.125,7.5C2.78,7.5,2.5,7.779,2.5,8.125S2.78,8.75,3.125,8.75S3.75,8.471,3.75,8.125
		S3.47,7.5,3.125,7.5z M4.375,10C4.03,10,3.75,10.279,3.75,10.625c0,0.346,0.28,0.625,0.625,0.625S5,10.971,5,10.625
		C5,10.279,4.72,10,4.375,10z M4.375,6.25C4.72,6.25,5,5.971,5,5.625S4.72,5,4.375,5S3.75,5.279,3.75,5.625S4.03,6.25,4.375,6.25z
		 M15.625,10C15.279,10,15,10.279,15,10.625c0,0.346,0.279,0.625,0.625,0.625s0.625-0.279,0.625-0.625
		C16.25,10.279,15.971,10,15.625,10z"/>
</g>
</svg>
