<?xml version="1.0" encoding="utf-8"?>
<!-- Generator: Adobe Illustrator 16.0.0, SVG Export Plug-In . SVG Version: 6.00 Build 0)  -->
<!DOCTYPE svg PUBLIC "-//W3C//DTD SVG 1.1//EN" "http://www.w3.org/Graphics/SVG/1.1/DTD/svg11.dtd">
<svg version="1.1" id="Layer_1" xmlns="http://www.w3.org/2000/svg" xmlns:xlink="http://www.w3.org/1999/xlink" x="0px" y="0px"
	 width="20px" height="20px" viewBox="0 0 20 20" enable-background="new 0 0 20 20" xml:space="preserve">
<g>
	<path fill="#4C4C4C" d="M16.823,3.24l-0.062-0.062c-1.456-1.456-3.837-1.456-5.291,0L8.098,6.549c-1.455,1.456-1.455,3.836,0,5.291
		l0.062,0.062c0.121,0.123,0.25,0.231,0.383,0.334l1.234-1.234c-0.144-0.087-0.28-0.188-0.404-0.312l-0.062-0.062
		c-0.79-0.79-0.79-2.075,0-2.866l3.371-3.371c0.791-0.79,2.076-0.79,2.865,0l0.062,0.062c0.791,0.791,0.791,2.076,0,2.866
		l-1.523,1.525c0.264,0.653,0.39,1.351,0.379,2.045l2.358-2.357C18.278,7.077,18.278,4.694,16.823,3.24z M11.84,8.098
		c-0.12-0.121-0.249-0.23-0.382-0.332L10.224,9c0.143,0.084,0.28,0.188,0.403,0.31l0.062,0.062c0.79,0.791,0.79,2.076,0,2.866
		L7.318,15.61c-0.788,0.789-2.075,0.789-2.865,0l-0.062-0.062c-0.791-0.79-0.791-2.074,0-2.865l1.524-1.524
		C5.65,10.504,5.526,9.807,5.537,9.11l-2.36,2.359c-1.455,1.454-1.455,3.835,0,5.289l0.062,0.064c1.456,1.454,3.838,1.454,5.293,0
		l3.371-3.373c1.455-1.455,1.455-3.835,0-5.29L11.84,8.098z"/>
</g>
</svg>
