<?xml version="1.0" encoding="utf-8"?> <!-- Generator: IcoMoon.io --> <!DOCTYPE svg PUBLIC "-//W3C//DTD SVG 1.1//EN" "http://www.w3.org/Graphics/SVG/1.1/DTD/svg11.dtd"> <svg version="1.1" id="Layer_1" xmlns="http://www.w3.org/2000/svg" xmlns:xlink="http://www.w3.org/1999/xlink" x="0px" y="0px" width="20" height="20" viewBox="0 0 20 20" enable-background="new 0 0 20 20" xml:space="preserve" fill="#4c4c4c"> <g><path d="M 11.152,10.129c0,0.126-0.055,0.24-0.139,0.323c-0.087,0.082-0.205,0.133-0.338,0.133L 9.327,10.585 c-0.132,0-0.25-0.051-0.338-0.133C 8.902,10.369, 8.85,10.255, 8.85,10.13L 8.85,5.425 L 6.631,5.425 c-0.13,0-0.25-0.051-0.338-0.134 C 6.25,5.249, 6.215,5.2, 6.189,5.144C 6.116,4.972, 6.157,4.776, 6.293,4.646l 3.371-3.225c 0.186-0.178, 0.487-0.178, 0.674,0l 3.369,3.225 c 0.137,0.131, 0.177,0.326, 0.104,0.497c-0.023,0.057-0.062,0.108-0.104,0.149C 13.62,5.375, 13.5,5.425, 13.37,5.425l-2.22,0 l0,4.704 L 11.152,10.129 z M 15.394,16.579c 2.973-2.846, 2.973-7.475,0-10.321l-1.348,1.291c 2.229,2.134, 2.229,5.605,0,7.741 c-2.231,2.134-5.86,2.134-8.089-0.002c-2.23-2.134-2.23-5.605,0-7.739L 4.608,6.258c-2.974,2.846-2.974,7.475-0.001,10.321 C 7.582,19.424, 12.42,19.424, 15.394,16.579z"></path></g></svg>