<?xml version="1.0" encoding="utf-8"?>
<!-- Generator: Adobe Illustrator 16.0.0, SVG Export Plug-In . SVG Version: 6.00 Build 0)  -->
<!DOCTYPE svg PUBLIC "-//W3C//DTD SVG 1.1//EN" "http://www.w3.org/Graphics/SVG/1.1/DTD/svg11.dtd">
<svg version="1.1" id="Layer_1" xmlns="http://www.w3.org/2000/svg" xmlns:xlink="http://www.w3.org/1999/xlink" x="0px" y="0px"
	 width="90px" height="12px" viewBox="0 0 90 12" enable-background="new 0 0 90 12" xml:space="preserve">
<path fill-rule="evenodd" clip-rule="evenodd" fill="#4D4D4D" d="M27.612,6.005c-0.137,1.078,0.044,2.474-0.092,3.552
	c-0.424,0.053-1.215,0.118-1.568-0.047c-0.083-2.026-0.046-4.644-0.046-7.057c0-0.97-0.216-2.213,0.554-2.305
	c1.118-0.134,2.746-0.101,3.828,0c1.527,0.142,2.673,1.315,2.674,2.858C32.964,5.451,30.891,6.387,27.612,6.005z M27.566,1.763
	c0,0.938,0,1.875,0,2.813c1.056,0.009,2.477,0.239,3.136-0.231c0.823-0.587,0.609-2.124-0.23-2.536
	c-0.831-0.408-1.774-0.066-2.813-0.185C27.6,1.644,27.564,1.684,27.566,1.763z"/>
<path fill-rule="evenodd" clip-rule="evenodd" fill="#4D4D4D" d="M54.682,1.071c1.012-0.25,3.019-0.046,4.243-0.046
	c9.12,0,17.968,0,27.159,0c0.805,0,1.688-0.052,1.938,0.139c0.347,0.262,0.484,1.698,0.602,2.306
	c0.327,1.718,0.594,3.205,0.921,4.888c0.118,0.61,0.544,1.941,0.275,2.398c-0.224,0.381-1.328,0.275-1.981,0.275
	c-10.643,0-20.787,0-31.45,0c-0.717,0-1.812,0.076-2.075-0.139c-0.348-0.279-0.23-1.554-0.23-2.397c0-1.676,0-3.351,0-5.256
	C54.082,2.187,53.875,1.27,54.682,1.071z M58.647,2.593c-0.475,0.248-0.988,0.458-1.337,0.83c0.209,0.62,0.67,0.99,0.876,1.614
	c-0.639,0.051-1.27-0.141-1.846,0c-0.075,0.45-0.075,1.209,0,1.66c0.64,0.054,1.327-0.088,1.846,0
	c-0.247,0.584-0.696,0.964-0.876,1.615c0.419,0.301,0.852,0.592,1.383,0.783c0.386-0.445,0.591-1.07,0.922-1.568
	c0.434,0.427,0.512,1.21,1.016,1.568c0.474-0.248,0.987-0.459,1.337-0.83c-0.206-0.624-0.667-0.996-0.876-1.615
	c0.639-0.051,1.269,0.142,1.845,0c0.076-0.435,0.076-1.178,0-1.614c-0.552-0.163-1.335,0.076-1.845-0.046
	c0.246-0.583,0.694-0.964,0.876-1.614c-0.422-0.301-0.859-0.585-1.384-0.784c-0.385,0.445-0.591,1.07-0.922,1.568
	C59.229,3.732,59.143,2.958,58.647,2.593z M66.672,2.593c-0.476,0.248-0.989,0.458-1.337,0.83c0.208,0.62,0.67,0.99,0.874,1.614
	c-0.637,0.051-1.268-0.141-1.843,0c-0.078,0.45-0.078,1.209,0,1.66c0.638,0.054,1.326-0.088,1.843,0
	c-0.246,0.584-0.694,0.964-0.874,1.615c0.42,0.301,0.851,0.592,1.382,0.783c0.387-0.445,0.591-1.07,0.922-1.568
	c0.435,0.427,0.513,1.21,1.016,1.568c0.474-0.248,0.988-0.459,1.337-0.83c-0.206-0.624-0.665-0.996-0.876-1.615
	c0.64-0.051,1.269,0.142,1.844,0c0.077-0.435,0.077-1.178,0-1.614c-0.55-0.163-1.334,0.076-1.844-0.046
	c0.247-0.583,0.695-0.964,0.876-1.614c-0.422-0.301-0.859-0.585-1.384-0.784c-0.384,0.445-0.59,1.07-0.922,1.568
	C67.255,3.732,67.166,2.958,66.672,2.593z M74.742,2.593c-0.476,0.248-0.988,0.458-1.339,0.83c0.212,0.62,0.67,0.99,0.877,1.614
	c-0.638,0.051-1.269-0.141-1.845,0c-0.075,0.45-0.075,1.209,0,1.66c0.639,0.054,1.328-0.088,1.845,0
	c-0.245,0.584-0.696,0.964-0.877,1.615c0.42,0.301,0.852,0.592,1.384,0.783c0.387-0.445,0.591-1.07,0.924-1.568
	c0.431,0.427,0.511,1.21,1.013,1.568c0.475-0.248,0.988-0.459,1.339-0.83c-0.208-0.624-0.667-0.996-0.878-1.615
	c0.64-0.051,1.27,0.142,1.847,0c0.074-0.435,0.074-1.178,0-1.614c-0.552-0.163-1.336,0.076-1.847-0.046
	c0.247-0.583,0.697-0.964,0.878-1.614c-0.423-0.301-0.86-0.585-1.384-0.784c-0.386,0.445-0.591,1.07-0.924,1.568
	C75.324,3.732,75.237,2.958,74.742,2.593z M82.767,2.593c-0.477,0.248-0.989,0.458-1.339,0.83c0.211,0.62,0.67,0.99,0.876,1.614
	c-0.637,0.051-1.268-0.141-1.845,0c-0.076,0.45-0.076,1.209,0,1.66c0.639,0.054,1.328-0.088,1.845,0
	c-0.245,0.584-0.695,0.964-0.876,1.615c0.42,0.301,0.851,0.592,1.384,0.783c0.385-0.445,0.59-1.07,0.923-1.568
	c0.431,0.427,0.511,1.21,1.015,1.568c0.474-0.248,0.987-0.459,1.335-0.83C85.879,7.642,85.42,7.27,85.21,6.651
	c0.638-0.051,1.268,0.142,1.844,0c0.077-0.435,0.077-1.178,0-1.614c-0.552-0.163-1.335,0.076-1.844-0.046
	c0.245-0.583,0.695-0.964,0.874-1.614c-0.421-0.301-0.858-0.585-1.383-0.784c-0.384,0.445-0.589,1.07-0.922,1.568
	C83.349,3.732,83.261,2.958,82.767,2.593z"/>
<path fill-rule="evenodd" clip-rule="evenodd" fill="#4D4D4D" d="M39.694,9.096c-1.425,0.932-5.046,1.024-5.811-0.508
	c-0.417-0.836-0.24-2.008,0.277-2.628c0.785-0.941,2.382-0.922,3.966-0.877c0.301-1.993-2.32-1.334-3.505-1.106
	c-0.12-0.341-0.217-0.704-0.277-1.107c1.145-0.546,3.482-0.821,4.52-0.091C40.352,3.823,39.561,6.868,39.694,9.096z M35.405,7.988
	c0.373,0.648,1.908,0.511,2.721,0.277c-0.029-0.647,0.06-1.412-0.046-1.982C36.564,6.004,34.623,6.622,35.405,7.988z"/>
<path fill-rule="evenodd" clip-rule="evenodd" fill="#4D4D4D" d="M46.012,2.869c-0.026,0.498-0.232,0.813-0.416,1.154
	c-0.553-0.203-2.904-0.876-2.904,0.322c0,0.934,1.951,1.105,2.72,1.614c0.848,0.562,1.327,2.099,0.461,3.043
	c-1.027,1.119-3.939,0.877-5.072,0.045c0.067-0.485,0.243-0.861,0.507-1.15c0.67,0.318,3.434,1.133,3.458-0.232
	c0.013-0.769-1.143-0.983-1.798-1.244c-0.656-0.262-1.515-0.703-1.753-1.292C40.159,2.513,44.131,1.688,46.012,2.869z"/>
<path fill-rule="evenodd" clip-rule="evenodd" fill="#4D4D4D" d="M52.238,2.869c-0.006,0.488-0.218,0.768-0.37,1.107
	c-0.562-0.089-2.95-0.859-2.95,0.369c0,0.894,2.563,1.327,3.182,1.983c0.391,0.417,0.653,1.471,0.322,2.213
	c-0.708,1.583-4.046,1.469-5.396,0.507c0.086-0.466,0.249-0.857,0.508-1.15c0.681,0.312,3.491,1.154,3.459-0.277
	c-0.016-0.643-0.942-0.861-1.569-1.107c-1.062-0.419-2.629-1.07-1.983-2.859C47.987,2.141,50.719,2.055,52.238,2.869z"/>
<path fill-rule="evenodd" clip-rule="evenodd" fill="#4D4D4D" d="M1.695,0.057c0.084,1.766,0.047,3.738,0.047,5.718
	c0,0.541-0.092,1.438,0.091,1.798C2.122,8.14,3.196,7.988,4.001,7.988c0.931,0,1.805-0.038,2.536,0.047
	c0.074,0.37,0.074,1.013,0,1.383C3.881,9.339,0.375,10.24,0.082,7.62c-0.245-2.175,0.145-5.196,0.046-7.563
	C0.556-0.019,1.267-0.019,1.695,0.057z"/>
<path fill-rule="evenodd" clip-rule="evenodd" fill="#4D4D4D" d="M22.816,0.472c0.105,0.525,0.017,1.244,0.046,1.844
	c0.438,0.131,1.174-0.036,1.614,0.093c0.075,0.3,0.075,0.898,0,1.199c-0.522,0-1.045,0-1.568,0c0.172,0.927-0.416,3.425,0.046,4.29
	c0.316,0.588,1.218,0.236,1.937,0.23c0.108,0.367,0.192,0.761,0.185,1.245c-1.552,0.442-3.569,0.478-3.782-1.2
	c-0.175-1.383,0.13-2.973,0-4.565c-0.373-0.027-0.855,0.056-1.153-0.047c-0.072-0.245-0.072-0.723,0-0.968
	C20.53,2.49,20.94,2.408,21.34,2.316c0.102-0.467,0.117-1.02,0.231-1.476C21.972,0.703,22.28,0.474,22.816,0.472z"/>
<path fill-rule="evenodd" clip-rule="evenodd" fill="#4D4D4D" d="M13.04,9.003C11.542,9.868,7.983,9.998,7.229,8.45
	C6.806,7.583,7.025,6.396,7.505,5.821c0.739-0.885,2.337-0.956,3.966-0.876c0.285-2.007-2.295-1.306-3.504-1.106
	C7.847,3.496,7.749,3.134,7.69,2.731c1.322-0.68,4.262-0.87,5.072,0.461C13.58,4.535,12.86,6.932,13.04,9.003z M9.166,6.328
	c-0.447,0.244-0.735,1.03-0.369,1.569c0.415,0.607,1.869,0.444,2.674,0.23c-0.029-0.647,0.06-1.413-0.045-1.984
	C10.677,6.22,9.775,5.997,9.166,6.328z"/>
<path fill-rule="evenodd" clip-rule="evenodd" fill="#4D4D4D" d="M19.357,2.731c0.059,0.398-0.239,0.795-0.369,1.154
	c-0.575-0.181-2.887-0.854-2.951,0.276c-0.04,0.708,1.023,0.943,1.568,1.153c0.883,0.34,1.761,0.696,2.029,1.522
	c0.966,2.983-3.695,3.404-5.488,2.074c0.08-0.474,0.241-0.865,0.507-1.152c0.699,0.295,3.434,1.145,3.458-0.23
	c0.014-0.77-0.954-0.896-1.614-1.152c-0.717-0.279-1.657-0.702-1.938-1.385C13.501,2.408,17.539,1.519,19.357,2.731z"/>
</svg>
