<?xml version="1.0" encoding="utf-8"?>
<!-- Generator: Adobe Illustrator 16.0.0, SVG Export Plug-In . SVG Version: 6.00 Build 0)  -->
<!DOCTYPE svg PUBLIC "-//W3C//DTD SVG 1.1//EN" "http://www.w3.org/Graphics/SVG/1.1/DTD/svg11.dtd">
<svg version="1.1" id="Layer_1" xmlns="http://www.w3.org/2000/svg" xmlns:xlink="http://www.w3.org/1999/xlink" x="0px" y="0px"
	 width="20px" height="20px" viewBox="0 0 20 20" enable-background="new 0 0 20 20" xml:space="preserve">
<path fill="#4C4C4C" d="M5.189,15.104h-1.48V6.577h5.685h5.684v0.987h1.896V5.629c0-0.523-0.426-0.947-0.948-0.947h-5.686V2.787
	c0-0.523-0.423-0.948-0.947-0.948H3.709c-0.524,0-0.947,0.424-0.947,0.948v1.895c-0.524,0-0.948,0.424-0.948,0.947v10.423
	c0,0.522,0.424,0.946,0.948,0.946h2.428V15.104z M4.656,3.735h3.791v0.947H4.656V3.735z"/>
<g>
	<path fill="#4C4C4C" d="M14.872,15.651c-0.218-0.033-0.224-0.625-0.224-0.625s0.64-0.628,0.779-1.471
		c0.374,0,0.606-0.896,0.23-1.212c0.017-0.332,0.483-2.608-1.876-2.608s-1.892,2.276-1.877,2.608
		c-0.375,0.315-0.144,1.212,0.231,1.212c0.139,0.843,0.778,1.471,0.778,1.471s-0.005,0.592-0.223,0.625
		c-0.7,0.11-3.318,1.256-3.318,2.509h4.408h4.405C18.188,16.907,15.572,15.762,14.872,15.651z M10.388,15.852
		c0.505-0.311,1.119-0.6,1.623-0.772c-0.183-0.257-0.383-0.607-0.509-1.021c-0.178-0.144-0.32-0.351-0.413-0.603
		c-0.094-0.254-0.128-0.539-0.099-0.8c0.021-0.188,0.074-0.363,0.157-0.519c-0.05-0.534-0.086-1.583,0.602-2.35
		c0.267-0.296,0.602-0.51,1.006-0.639c-0.072-0.744-0.45-1.616-1.911-1.616c-2.36,0-1.894,2.274-1.877,2.606
		c-0.375,0.315-0.144,1.214,0.231,1.214c0.138,0.843,0.779,1.471,0.779,1.471s-0.004,0.592-0.223,0.626
		c-0.702,0.11-3.316,1.255-3.316,2.508h3.783C10.274,15.923,10.33,15.887,10.388,15.852z"/>
</g>
</svg>
