<?xml version="1.0" encoding="utf-8"?>
<!-- Generator: Adobe Illustrator 16.0.0, SVG Export Plug-In . SVG Version: 6.00 Build 0)  -->
<!DOCTYPE svg PUBLIC "-//W3C//DTD SVG 1.1//EN" "http://www.w3.org/Graphics/SVG/1.1/DTD/svg11.dtd">
<svg version="1.1" id="Layer_1" xmlns="http://www.w3.org/2000/svg" xmlns:xlink="http://www.w3.org/1999/xlink" x="0px" y="0px"
	 width="32px" height="6px" viewBox="0 0 32 6" enable-background="new 0 0 32 6" xml:space="preserve">
<g>
	<path fill-rule="evenodd" clip-rule="evenodd" fill="#E6E6E6" d="M2.812,0c1.554,0,2.812,1.259,2.812,2.812
		c0,1.553-1.259,2.812-2.812,2.812S0,4.365,0,2.812C0,1.259,1.259,0,2.812,0z"/>
	<path fill-rule="evenodd" clip-rule="evenodd" fill="#E6E6E6" d="M15,0c1.554,0,2.812,1.259,2.812,2.812
		c0,1.553-1.259,2.812-2.812,2.812s-2.812-1.26-2.812-2.812C12.188,1.259,13.446,0,15,0z"/>
	<path fill-rule="evenodd" clip-rule="evenodd" fill="#E6E6E6" d="M27.188,0C28.741,0,30,1.259,30,2.812
		c0,1.553-1.259,2.812-2.812,2.812s-2.812-1.26-2.812-2.812C24.375,1.259,25.634,0,27.188,0z"/>
</g>
</svg>
