<?xml version="1.0" encoding="utf-8"?> <!-- Generator: IcoMoon.io --> <!DOCTYPE svg PUBLIC "-//W3C//DTD SVG 1.1//EN" "http://www.w3.org/Graphics/SVG/1.1/DTD/svg11.dtd"> <svg version="1.1" id="Layer_1" xmlns="http://www.w3.org/2000/svg" xmlns:xlink="http://www.w3.org/1999/xlink" x="0px" y="0px" width="20" height="20" viewBox="0 0 20 20" enable-background="new 0 0 20 20" xml:space="preserve" fill="#4c4c4c"> <g><path d="M 15.657,14.626c-1.309,1.304-2.989,2.1-4.804,2.289l0,1.587 c0,0.134-0.055,0.261-0.146,0.353 c-0.038,0.038-0.083,0.070-0.134,0.096c-0.172,0.083-0.376,0.062-0.526-0.055l-3.183-2.467c-0.017-0.013-0.031-0.026-0.046-0.041 c-0.094-0.093-0.146-0.219-0.146-0.352s 0.053-0.26, 0.146-0.354c 0.014-0.014, 0.029-0.027, 0.046-0.041l 3.183-2.466 c 0.15-0.116, 0.354-0.138, 0.526-0.054c 0.051,0.023, 0.096,0.057, 0.134,0.095c 0.092,0.092, 0.146,0.218, 0.146,0.353l0,1.338 c 1.279-0.18, 2.46-0.764, 3.389-1.69c 2.34-2.331, 2.34-6.124,0-8.456c-2.339-2.332-6.146-2.332-8.484,0C 4.624,5.891, 4,7.392, 4,8.989 c0,1.597, 0.624,3.098, 1.758,4.228l-1.415,1.409C 2.832,13.12, 2,11.118, 2,8.989c0-2.13, 0.832-4.132, 2.343-5.638 c 3.119-3.108, 8.195-3.108, 11.314,0S 18.776,11.518, 15.657,14.626z"></path></g></svg>