<?xml version="1.0" encoding="utf-8"?> <!-- Generator: IcoMoon.io --> <!DOCTYPE svg PUBLIC "-//W3C//DTD SVG 1.1//EN" "http://www.w3.org/Graphics/SVG/1.1/DTD/svg11.dtd"> <svg version="1.1" id="Layer_1" xmlns="http://www.w3.org/2000/svg" xmlns:xlink="http://www.w3.org/1999/xlink" x="0px" y="0px" width="20" height="20" viewBox="0 0 20 20" enable-background="new 0 0 20 20" xml:space="preserve" fill="#e0e0e0"> <g><path d="M 17.86,15.652l-2.756-2.759c 0.727-1.133, 1.159-2.475, 1.159-3.92c0-4.027-3.265-7.292-7.291-7.292 c-4.027,0-7.292,3.264-7.292,7.292c0,4.026, 3.264,7.291, 7.292,7.291c 1.446,0, 2.788-0.433, 3.92-1.159l 2.759,2.756 c 0.609,0.61, 1.599,0.61, 2.208,0C 18.471,17.251, 18.471,16.262, 17.86,15.652z M 8.973,14.18c-2.876,0-5.208-2.329-5.208-5.207 c0-2.878, 2.332-5.208, 5.208-5.208c 2.877,0, 5.207,2.33, 5.207,5.208C 14.18,11.851, 11.851,14.18, 8.973,14.18z"></path></g></svg>
