<?xml version="1.0" encoding="utf-8"?>
<!-- Generator: Adobe Illustrator 16.0.0, SVG Export Plug-In . SVG Version: 6.00 Build 0)  -->
<!DOCTYPE svg PUBLIC "-//W3C//DTD SVG 1.1//EN" "http://www.w3.org/Graphics/SVG/1.1/DTD/svg11.dtd">
<svg version="1.1" id="Layer_1" xmlns="http://www.w3.org/2000/svg" xmlns:xlink="http://www.w3.org/1999/xlink" x="0px" y="0px"
	 width="20px" height="20px" viewBox="0 0 20 20" enable-background="new 0 0 20 20" xml:space="preserve">
<g>
	<path fill="#4C4C4C" d="M7.5,10h6v1h-6V10z M7.5,12h6v1h-6V12z"/>
	<g>
		<rect x="7.5" y="8" fill="#4C4C4C" width="6" height="1"/>
		<path fill="#4C4C4C" d="M16,1H5C4.175,1,3.5,1.675,3.5,2.5V11h2V3h10v12h-6v2H16c0.824,0,1.5-0.676,1.5-1.5v-13
			C17.5,1.675,16.824,1,16,1z"/>
		<rect x="7.5" y="5" fill="#4C4C4C" width="6" height="2"/>
	</g>
	<polygon fill-rule="evenodd" clip-rule="evenodd" fill="#4C4C4C" points="8.5,15 5.5,15 5.5,12 3.5,12 3.5,15 0.5,15 0.5,17 
		3.5,17 3.5,20 5.5,20 5.5,17 8.5,17 	"/>
</g>
</svg>
