<?xml version="1.0" encoding="utf-8"?> <!-- Generator: IcoMoon.io --> <!DOCTYPE svg PUBLIC "-//W3C//DTD SVG 1.1//EN" "http://www.w3.org/Graphics/SVG/1.1/DTD/svg11.dtd"> <svg version="1.1" id="Layer_1" xmlns="http://www.w3.org/2000/svg" xmlns:xlink="http://www.w3.org/1999/xlink" x="0px" y="0px" width="20" height="20" viewBox="0 0 20 20" enable-background="new 0 0 20 20" xml:space="preserve" fill="#4c4c4c"> <g><path d="M 7.504,10.422L 13.42,10.422L 13.42,11.409L 7.504,11.409zM 7.504,5.492L 13.42,5.492L 13.42,7.465L 7.504,7.465zM 7.504,8.451L 13.42,8.451L 13.42,9.437L 7.504,9.437zM 8.49,12.6L 13.42,12.6L 13.42,13.586L 8.49,13.586zM 15.886,1.753L 5.039,1.753 c-0.813,0-1.479,0.666-1.479,1.479l0,6.854 l 1.972,0 L 5.532,3.725 l 9.861,0 l0,11.833 L 9.837,15.558 l0,1.972 l 6.049,0 c 0.813,0, 1.479-0.665, 1.479-1.479L 17.365,3.232 C 17.364,2.418, 16.699,1.753, 15.886,1.753zM 8.059,14.363L 7.565,14.363 L 7.565,13.070 c0-0.953-0.883-1.726-1.972-1.726c-1.088,0-1.972,0.772-1.972,1.726l0,1.293 L 3.127,14.363 c-0.271,0-0.493,0.194-0.493,0.433l0,3.019 c0,0.237, 0.222,0.433, 0.493,0.433l 4.931,0 c 0.271,0, 0.493-0.194, 0.493-0.433l0-3.019 C 8.551,14.558, 8.329,14.363, 8.059,14.363z M 4.607,13.070c0-0.476, 0.441-0.863, 0.986-0.863c 0.544,0, 0.987,0.388, 0.987,0.863l0,1.293 L 4.607,14.363 L 4.607,13.070 z"></path></g></svg>