<?xml version="1.0" encoding="utf-8"?>
<!-- Generator: Adobe Illustrator 16.0.0, SVG Export Plug-In . SVG Version: 6.00 Build 0)  -->
<!DOCTYPE svg PUBLIC "-//W3C//DTD SVG 1.1//EN" "http://www.w3.org/Graphics/SVG/1.1/DTD/svg11.dtd">
<svg version="1.1" id="Layer_1" xmlns="http://www.w3.org/2000/svg" xmlns:xlink="http://www.w3.org/1999/xlink" x="0px" y="0px"
	 width="20px" height="20px" viewBox="0 0 20 20" enable-background="new 0 0 20 20" xml:space="preserve">
<g>
	<path fill-rule="evenodd" clip-rule="evenodd" fill="#4C4C4C" d="M16.319,9.068c0.053,0.263,0.079,0.575,0.079,0.937
		c0,0.363-0.026,0.673-0.079,0.937l1.639,1.35c0.132,0.087,0.164,0.206,0.099,0.355c-0.329,0.963-0.869,1.851-1.619,2.661
		c-0.105,0.126-0.23,0.158-0.375,0.095l-2.054-0.676c-0.526,0.401-1.093,0.714-1.698,0.938l-0.414,2.024
		c-0.026,0.148-0.119,0.237-0.276,0.261c-0.566,0.101-1.106,0.15-1.62,0.15s-1.054-0.05-1.619-0.15
		c-0.158-0.023-0.25-0.112-0.277-0.261L7.69,15.665c-0.646-0.237-1.211-0.551-1.698-0.938l-2.054,0.676
		c-0.146,0.063-0.27,0.031-0.376-0.095c-0.75-0.811-1.29-1.698-1.619-2.661c-0.066-0.149-0.033-0.269,0.099-0.355l1.639-1.35
		c-0.052-0.264-0.079-0.574-0.079-0.937c0-0.362,0.027-0.674,0.079-0.937l-1.639-1.35C1.912,7.631,1.878,7.512,1.944,7.362
		C2.273,6.4,2.813,5.514,3.563,4.701c0.106-0.125,0.23-0.156,0.376-0.094l2.054,0.675c0.486-0.387,1.052-0.7,1.698-0.938
		l0.414-2.024c0.027-0.15,0.119-0.237,0.277-0.262c1.079-0.212,2.159-0.212,3.239,0c0.157,0.025,0.25,0.112,0.276,0.262l0.414,2.024
		c0.605,0.226,1.172,0.538,1.698,0.938l2.054-0.675c0.145-0.062,0.27-0.031,0.375,0.094c0.75,0.812,1.29,1.699,1.619,2.661
		c0.065,0.15,0.033,0.269-0.099,0.356L16.319,9.068z M10,5.957c-2.236,0-4.048,1.813-4.048,4.048c0,2.234,1.812,4.048,4.048,4.048
		s4.048-1.813,4.048-4.048C14.049,7.77,12.236,5.957,10,5.957z"/>
</g>
</svg>
