<?xml version="1.0" encoding="utf-8"?>
<!-- Generator: Adobe Illustrator 16.0.0, SVG Export Plug-In . SVG Version: 6.00 Build 0)  -->
<!DOCTYPE svg PUBLIC "-//W3C//DTD SVG 1.1//EN" "http://www.w3.org/Graphics/SVG/1.1/DTD/svg11.dtd">
<svg version="1.1" id="Layer_1" xmlns="http://www.w3.org/2000/svg" xmlns:xlink="http://www.w3.org/1999/xlink" x="0px" y="0px"
	 width="20px" height="20px" viewBox="0 0 20 20" enable-background="new 0 0 20 20" xml:space="preserve">
<g>
	<path fill="#4C4C4C" d="M13.662,14.014c-0.313-0.049-0.319-0.896-0.319-0.896s0.914-0.896,1.113-2.104
		c0.537,0,0.868-1.284,0.332-1.735c0.022-0.475,0.688-3.729-2.687-3.729c-3.376,0-2.709,3.255-2.686,3.729
		C8.879,9.73,9.21,11.014,9.747,11.014c0.199,1.205,1.113,2.104,1.113,2.104s-0.006,0.848-0.319,0.896
		c-1.002,0.158-4.744,1.795-4.744,3.59h6.305h6.305C18.406,15.809,14.663,14.172,13.662,14.014z M7.244,14.301
		c0.723-0.445,1.602-0.859,2.323-1.107c-0.259-0.368-0.547-0.869-0.728-1.461c-0.253-0.207-0.459-0.502-0.591-0.863
		c-0.133-0.363-0.182-0.77-0.141-1.145c0.029-0.269,0.106-0.52,0.224-0.741C8.259,8.219,8.209,6.717,9.191,5.622
		c0.381-0.424,0.862-0.729,1.439-0.914c-0.103-1.064-0.643-2.312-2.732-2.312c-3.376,0-2.709,3.255-2.686,3.729
		C4.676,6.577,5.007,7.86,5.544,7.86c0.199,1.206,1.113,2.104,1.113,2.104S6.65,10.812,6.339,10.86
		c-1.002,0.159-4.745,1.796-4.745,3.591h5.412C7.083,14.4,7.161,14.35,7.244,14.301z"/>
</g>
</svg>
