<?xml version="1.0" encoding="utf-8"?> <!-- Generator: IcoMoon.io --> <!DOCTYPE svg PUBLIC "-//W3C//DTD SVG 1.1//EN" "http://www.w3.org/Graphics/SVG/1.1/DTD/svg11.dtd"> <svg version="1.1" id="Layer_1" xmlns="http://www.w3.org/2000/svg" xmlns:xlink="http://www.w3.org/1999/xlink" x="0px" y="0px" width="20" height="20" viewBox="0 0 20 20" enable-background="new 0 0 20 20" xml:space="preserve" fill="#4c4c4c"> <g><path d="M 15.208,8.776l-1.041,0 l0-2.76 c0-2.298-1.868-4.166-4.167-4.166c-2.298,0-4.166,1.868-4.166,4.166l0,2.76 L 4.792,8.776 c-0.572,0-1.042-0.208-1.042,0.365l0,7.29 c0,0.572, 0.469,1.72, 1.042,1.72l 10.416,0 c 0.573,0, 1.042-1.147, 1.042-1.72l0-7.29 C 16.25,8.568, 15.781,8.776, 15.208,8.776z M 11.042,15.026L 8.958,15.026 L 8.958,11.9 l 2.083,0 L 11.041,15.026 z M 12.083,8.776L 7.917,8.776 l0-2.76 c0-1.149, 0.933-2.083, 2.083-2.083s 2.083,0.934, 2.083,2.083L 12.083,8.776 z"></path></g></svg>