<?xml version="1.0" encoding="UTF-8" standalone="no"?>
<!-- Created with Inkscape (http://www.inkscape.org/) -->

<svg
   xmlns:dc="http://purl.org/dc/elements/1.1/"
   xmlns:cc="http://creativecommons.org/ns#"
   xmlns:rdf="http://www.w3.org/1999/02/22-rdf-syntax-ns#"
   xmlns:svg="http://www.w3.org/2000/svg"
   xmlns="http://www.w3.org/2000/svg"
   xmlns:xlink="http://www.w3.org/1999/xlink"
   xmlns:sodipodi="http://sodipodi.sourceforge.net/DTD/sodipodi-0.dtd"
   xmlns:inkscape="http://www.inkscape.org/namespaces/inkscape"
   width="64px"
   height="64px"
   id="svg3117"
   version="1.1"
   inkscape:version="0.48.1 r9760"
   sodipodi:docname="corner-ripple-rtl1.svg">
  <defs
     id="defs3119">
    <linearGradient
       inkscape:collect="always"
       xlink:href="#linearGradient4637"
       id="linearGradient4643"
       x1="47.490059"
       y1="-34.121075"
       x2="48.524525"
       y2="122.45811"
       gradientUnits="userSpaceOnUse" />
    <linearGradient
       inkscape:collect="always"
       id="linearGradient4637">
      <stop
         style="stop-color:#2163fd;stop-opacity:1"
         offset="0"
         id="stop4639" />
      <stop
         style="stop-color:#000000;stop-opacity:1"
         offset="1"
         id="stop4641" />
    </linearGradient>
    <linearGradient
       inkscape:collect="always"
       xlink:href="#linearGradient4637"
       id="linearGradient3195"
       gradientUnits="userSpaceOnUse"
       x1="47.490059"
       y1="-34.121075"
       x2="48.524525"
       y2="122.45811" />
    <linearGradient
       inkscape:collect="always"
       xlink:href="#linearGradient4637"
       id="linearGradient3197"
       gradientUnits="userSpaceOnUse"
       x1="47.490059"
       y1="-34.121075"
       x2="48.524525"
       y2="122.45811" />
    <linearGradient
       inkscape:collect="always"
       xlink:href="#linearGradient4637"
       id="linearGradient3199"
       gradientUnits="userSpaceOnUse"
       x1="47.490059"
       y1="-34.121075"
       x2="48.524525"
       y2="122.45811" />
    <linearGradient
       inkscape:collect="always"
       xlink:href="#linearGradient4637"
       id="linearGradient3201"
       gradientUnits="userSpaceOnUse"
       x1="47.490059"
       y1="-34.121075"
       x2="48.524525"
       y2="122.45811" />
    <filter
       color-interpolation-filters="sRGB"
       inkscape:collect="always"
       id="filter4134">
      <feGaussianBlur
         inkscape:collect="always"
         stdDeviation="1.1804847"
         id="feGaussianBlur4136" />
    </filter>
    <linearGradient
       inkscape:collect="always"
       xlink:href="#linearGradient4637"
       id="linearGradient3203"
       gradientUnits="userSpaceOnUse"
       x1="47.490059"
       y1="-34.121075"
       x2="48.524525"
       y2="122.45811" />
    <linearGradient
       y2="122.45811"
       x2="48.524525"
       y1="-34.121075"
       x1="47.490059"
       gradientUnits="userSpaceOnUse"
       id="linearGradient3297"
       xlink:href="#linearGradient4637"
       inkscape:collect="always" />
    <linearGradient
       y2="122.45811"
       x2="48.524525"
       y1="-34.121075"
       x1="47.490059"
       gradientUnits="userSpaceOnUse"
       id="linearGradient3115"
       xlink:href="#linearGradient4637"
       inkscape:collect="always" />
    <linearGradient
       inkscape:collect="always"
       xlink:href="#linearGradient9761-6-4-6-0"
       id="linearGradient9767-0-5-3-81"
       x1="20.758144"
       y1="48"
       x2="75.241852"
       y2="48"
       gradientUnits="userSpaceOnUse" />
    <linearGradient
       inkscape:collect="always"
       id="linearGradient9761-6-4-6-0">
      <stop
         style="stop-color:#808080;stop-opacity:1"
         offset="0"
         id="stop9763-9-9-5-3" />
      <stop
         style="stop-color:#ffffff;stop-opacity:1"
         offset="1"
         id="stop9765-7-2-6-0" />
    </linearGradient>
    <linearGradient
       y2="48"
       x2="75.241852"
       y1="48"
       x1="20.758144"
       gradientUnits="userSpaceOnUse"
       id="linearGradient3223"
       xlink:href="#linearGradient9761-6-4-6-0"
       inkscape:collect="always" />
    <filter
       inkscape:collect="always"
       id="filter4018"
       x="-0.25289142"
       width="1.5057828"
       y="-0.20547431"
       height="1.4109486">
      <feGaussianBlur
         inkscape:collect="always"
         stdDeviation="5.4793141"
         id="feGaussianBlur4020" />
    </filter>
    <linearGradient
       y2="48"
       x2="75.241852"
       y1="48"
       x1="20.758144"
       gradientUnits="userSpaceOnUse"
       id="linearGradient3223-1"
       xlink:href="#linearGradient9761-6-4-6-0-0"
       inkscape:collect="always" />
    <linearGradient
       inkscape:collect="always"
       id="linearGradient9761-6-4-6-0-0">
      <stop
         style="stop-color:#808080;stop-opacity:1"
         offset="0"
         id="stop9763-9-9-5-3-3" />
      <stop
         style="stop-color:#ffffff;stop-opacity:1"
         offset="1"
         id="stop9765-7-2-6-0-0" />
    </linearGradient>
    <linearGradient
       y2="48"
       x2="75.241852"
       y1="48"
       x1="20.758144"
       gradientUnits="userSpaceOnUse"
       id="linearGradient4039"
       xlink:href="#linearGradient9761-6-4-6-0-0"
       inkscape:collect="always" />
    <linearGradient
       y2="48"
       x2="75.241852"
       y1="48"
       x1="20.758144"
       gradientUnits="userSpaceOnUse"
       id="linearGradient3223-3"
       xlink:href="#linearGradient9761-6-4-6-0-7"
       inkscape:collect="always" />
    <linearGradient
       inkscape:collect="always"
       id="linearGradient9761-6-4-6-0-7">
      <stop
         style="stop-color:#808080;stop-opacity:1"
         offset="0"
         id="stop9763-9-9-5-3-4" />
      <stop
         style="stop-color:#ffffff;stop-opacity:1"
         offset="1"
         id="stop9765-7-2-6-0-5" />
    </linearGradient>
    <filter
       color-interpolation-filters="sRGB"
       inkscape:collect="always"
       id="filter4018-2"
       x="-0.25289142"
       width="1.5057828"
       y="-0.20547432"
       height="1.4109486">
      <feGaussianBlur
         inkscape:collect="always"
         stdDeviation="5.4793141"
         id="feGaussianBlur4020-5" />
    </filter>
    <linearGradient
       y2="48"
       x2="75.241852"
       y1="48"
       x1="20.758144"
       gradientUnits="userSpaceOnUse"
       id="linearGradient3035"
       xlink:href="#linearGradient9761-6-4-6-0-7"
       inkscape:collect="always" />
  </defs>
  <sodipodi:namedview
     id="base"
     pagecolor="#ffffff"
     bordercolor="#666666"
     borderopacity="1.0"
     inkscape:pageopacity="0.0"
     inkscape:pageshadow="2"
     inkscape:zoom="5.5"
     inkscape:cx="32"
     inkscape:cy="32"
     inkscape:current-layer="layer1"
     showgrid="true"
     inkscape:document-units="px"
     inkscape:grid-bbox="true"
     inkscape:window-width="1280"
     inkscape:window-height="755"
     inkscape:window-x="0"
     inkscape:window-y="22"
     inkscape:window-maximized="1" />
  <metadata
     id="metadata3122">
    <rdf:RDF>
      <cc:Work
         rdf:about="">
        <dc:format>image/svg+xml</dc:format>
        <dc:type
           rdf:resource="http://purl.org/dc/dcmitype/StillImage" />
        <dc:title />
      </cc:Work>
    </rdf:RDF>
  </metadata>
  <g
     id="layer1"
     inkscape:label="Layer 1"
     inkscape:groupmode="layer">
    <path
       transform="matrix(1.0163441,0,0,0.89645922,-15.505781,-12.931602)"
       d="M 44.711143,79.413429 C 41.643396,78.389653 39.859509,77.373445 36.847112,74.933611 28.761581,68.384906 24.552941,58.729866 26.843833,51.985106 c 0.946442,-2.786469 2.025188,-4.552138 3.976935,-6.509347 3.388916,-3.398404 8.673481,-5.905092 15.278508,-7.247213 10.25603,-2.083997 18.332735,0.514772 18.964322,6.101978 0.458551,4.056496 -2.653731,7.74886 -11.626156,13.793095 -6.369229,4.290595 -8.85019,6.576814 -8.85019,8.15546 0,2.269188 2.753014,4.544427 5.498751,4.544427 1.732531,0 2.622442,-0.935953 3.388634,-3.563929 1.014414,-3.479359 3.087612,-4.70648 8.028717,-4.752185 3.461191,-0.03203 4.536127,0.769924 4.69502,3.502649 0.09305,1.600437 -0.102706,2.407838 -1.048032,4.322505 -1.549572,3.138544 -5.181757,6.742147 -8.375978,8.310107 -2.179651,1.069928 -2.852527,1.213153 -6.231189,1.326248 -2.947264,0.09864 -4.241279,-0.02456 -5.832032,-0.555472 z M 24.863338,41.157209 c -2.613871,-2.288366 -3.738455,-6.856961 -2.091994,-8.498666 2.509598,-2.502328 5.693292,-0.659047 6.70519,3.882145 1.066459,4.786065 -1.493422,7.347789 -4.613196,4.616521 z m 8.811312,-6.376996 c -1.873111,-1.968089 -2.497028,-3.525983 -2.514681,-6.279063 -0.01497,-2.334375 -0.01781,-2.978056 1.207591,-4.19991 2.431751,-2.424716 5.48633,-0.622018 6.427709,4.455637 0.462951,2.497092 -0.05956,4.759289 -1.434053,6.208651 -1.268839,1.337951 -2.285445,1.28685 -3.686566,-0.185315 z m 25.172289,0.007 c -1.210195,-0.634074 -2.532972,-2.632624 -2.846942,-4.301397 -0.608945,-3.236563 1.715935,-9.102684 4.513517,-11.388455 4.566519,-3.73109 11.305254,-4.178931 13.023663,-0.865522 1.398067,2.695743 -0.444664,7.49606 -4.536276,11.816986 -3.787652,3.999928 -7.900309,5.919108 -10.153962,4.738363 z M 45.182993,32.199986 c -1.447262,-0.696422 -2.491709,-3.449913 -2.500733,-6.592741 -0.01319,-4.589484 1.811591,-7.037412 5.248224,-7.040492 2.096479,-0.0018 3.316227,1.411874 3.67272,4.256883 0.435585,3.476238 -1.754356,8.647098 -3.991523,9.424723 -1.350614,0.469459 -1.352644,0.469425 -2.428688,-0.04838 z"
       inkscape:connector-curvature="0"
       id="path3456-9-5-9-3"
       style="fill:#0087ee;fill-opacity:1;stroke:url(#linearGradient3223);display:inline;filter:url(#filter4018)" />
    <path
       transform="matrix(0.92437494,0,0,0.8311921,-12.871009,-3.628884)"
       d="M 44.711143,79.413429 C 41.643396,78.389653 39.859509,77.373445 36.847112,74.933611 28.761581,68.384906 24.552941,58.729866 26.843833,51.985106 c 0.946442,-2.786469 2.025188,-4.552138 3.976935,-6.509347 3.388916,-3.398404 8.673481,-5.905092 15.278508,-7.247213 10.25603,-2.083997 18.332735,0.514772 18.964322,6.101978 0.458551,4.056496 -2.653731,7.74886 -11.626156,13.793095 -6.369229,4.290595 -8.85019,6.576814 -8.85019,8.15546 0,2.269188 2.753014,4.544427 5.498751,4.544427 1.732531,0 2.622442,-0.935953 3.388634,-3.563929 1.014414,-3.479359 3.087612,-4.70648 8.028717,-4.752185 3.461191,-0.03203 4.536127,0.769924 4.69502,3.502649 0.09305,1.600437 -0.102706,2.407838 -1.048032,4.322505 -1.549572,3.138544 -5.181757,6.742147 -8.375978,8.310107 -2.179651,1.069928 -2.852527,1.213153 -6.231189,1.326248 -2.947264,0.09864 -4.241279,-0.02456 -5.832032,-0.555472 z M 24.863338,41.157209 c -2.613871,-2.288366 -3.738455,-6.856961 -2.091994,-8.498666 2.509598,-2.502328 5.693292,-0.659047 6.70519,3.882145 1.066459,4.786065 -1.493422,7.347789 -4.613196,4.616521 z m 8.811312,-6.376996 c -1.873111,-1.968089 -2.497028,-3.525983 -2.514681,-6.279063 -0.01497,-2.334375 -0.01781,-2.978056 1.207591,-4.19991 2.431751,-2.424716 5.48633,-0.622018 6.427709,4.455637 0.462951,2.497092 -0.05956,4.759289 -1.434053,6.208651 -1.268839,1.337951 -2.285445,1.28685 -3.686566,-0.185315 z m 25.172289,0.007 c -1.210195,-0.634074 -2.532972,-2.632624 -2.846942,-4.301397 -0.608945,-3.236563 1.715935,-9.102684 4.513517,-11.388455 4.566519,-3.73109 11.305254,-4.178931 13.023663,-0.865522 1.398067,2.695743 -0.444664,7.49606 -4.536276,11.816986 -3.787652,3.999928 -7.900309,5.919108 -10.153962,4.738363 z M 45.182993,32.199986 c -1.447262,-0.696422 -2.491709,-3.449913 -2.500733,-6.592741 -0.01319,-4.589484 1.811591,-7.037412 5.248224,-7.040492 2.096479,-0.0018 3.316227,1.411874 3.67272,4.256883 0.435585,3.476238 -1.754356,8.647098 -3.991523,9.424723 -1.350614,0.469459 -1.352644,0.469425 -2.428688,-0.04838 z"
       inkscape:connector-curvature="0"
       id="path3456-9-5-9-3-4"
       style="fill:#0087ee;fill-opacity:1;stroke:url(#linearGradient3035);display:inline;filter:url(#filter4018-2)" />
    <g
       id="layer3-9"
       style="fill:#d5eeff;fill-opacity:1;stroke:url(#linearGradient4643);display:inline"
       transform="matrix(0.84773464,0,0,0.83496816,-8.4185364,-8.0521629)">
      <path
         d="m 67.96875,14.875 c -2.946701,0.19583 -6.182842,1.357145 -8.84375,3.53125 -1.86011,1.519808 -3.2093,3.814984 -4.15625,6.21875 -0.94527,2.399503 -1.528009,4.941903 -1.09375,7.25 0.22778,1.210668 0.749312,2.356032 1.40625,3.34375 0.3501,0.526382 0.752614,1.045643 1.21875,1.5 -1.025805,-0.141726 -2.009247,-0.324623 -3.125,-0.34375 -2.362988,-0.04051 -4.993816,0.165051 -7.71875,0.71875 -6.349392,1.290177 -11.575692,3.695 -15.34375,7.03125 1.635381,-1.678373 1.904321,-4.266274 1.28125,-7.0625 -0.103788,-0.46578 -0.292811,-0.85101 -0.4375,-1.28125 0.345267,0.488815 0.523842,1.032533 0.96875,1.5 0.868904,0.912962 1.94003,1.740663 3.34375,1.8125 1.439513,0.07367 2.61396,-0.723651 3.46875,-1.625 1.966911,-2.074049 2.525143,-5.092646 1.96875,-8.09375 -0.403774,-2.177897 -1.170868,-4.01698 -2.3125,-5.34375 -1.166452,-1.355615 -2.866792,-2.164034 -4.65625,-1.90625 -1.243914,0.179193 -2.24399,0.840108 -3.0625,1.65625 -0.746314,0.744154 -1.415183,1.586847 -1.6875,2.65625 C 28.930438,27.446997 28.99265,28.353825 29,29.5 c 0.008,1.245858 0.300611,2.318165 0.625,3.375 -0.178566,-0.229608 -0.301065,-0.514482 -0.5,-0.71875 -1.218696,-1.251366 -2.96161,-2.008578 -4.75,-1.71875 -1.201371,0.194696 -2.222566,0.818838 -3.09375,1.6875 -1.642828,1.638082 -1.653955,4.011129 -1.15625,6.03125 0.500428,2.031173 1.5889,4.11604 3.3125,5.625 1.008364,0.882792 2.127137,1.527071 3.375,1.65625 1.279721,0.132477 2.530991,-0.370486 3.40625,-1.21875 -0.292417,0.262066 -0.664092,0.475826 -0.9375,0.75 -2.14019,2.14618 -3.479769,4.340035 -4.5,7.34375 -2.74215,8.073338 2.086755,18.346508 10.6875,25.3125 3.118002,2.525366 5.324524,3.763165 8.5625,4.84375 1.839583,0.613959 3.530988,0.75771 6.5625,0.65625 3.435684,-0.115004 4.820124,-0.399853 7.125,-1.53125 3.767171,-1.849206 7.534412,-5.584527 9.375,-9.3125 1.020629,-2.067186 1.35674,-3.570347 1.25,-5.40625 -0.09593,-1.649933 -0.556341,-3.351086 -1.96875,-4.40625 -1.362359,-1.017774 -3.001788,-1.142335 -4.875,-1.125 -2.636084,0.02438 -4.810162,0.320598 -6.59375,1.375 -1.802191,1.0654 -2.895793,2.833868 -3.5,4.90625 -0.339324,1.163853 -0.736255,1.825597 -0.8125,1.90625 -0.20804,0.220066 0.04602,0.125 -0.5,0.125 -0.750223,0 -1.740367,-0.389474 -2.40625,-0.9375 -0.637378,-0.524567 -0.884024,-1.154208 -0.90625,-1.375 0.02969,-0.05915 0.0577,-0.116348 0.125,-0.21875 0.194747,-0.296313 0.57337,-0.777098 1.1875,-1.34375 1.246258,-1.149909 3.383661,-2.723394 6.53125,-4.84375 4.558719,-3.070962 7.734352,-5.599971 9.8125,-8.0625 2.092688,-2.479758 3.051444,-5.114575 2.75,-7.78125 -0.32133,-2.842578 -2.122999,-5.14034 -4.625,-6.5625 C 62.24704,38.35194 61.836334,38.280587 61.5,38.125 c 0.927562,-0.151969 1.887642,-0.398086 2.78125,-0.8125 2.116708,-0.98163 4.238614,-2.592885 6.28125,-4.75 2.210101,-2.333965 3.854529,-4.855544 4.78125,-7.28125 0.924232,-2.41919 1.233358,-4.925372 0.125,-7.0625 -1.402202,-2.703704 -4.54558,-3.540093 -7.5,-3.34375 z M 47.9375,17.40625 c -2.252552,0.002 -4.351264,0.909902 -5.65625,2.65625 -1.281702,1.715189 -1.757398,3.957051 -1.75,6.53125 0.0052,1.806251 0.320573,3.506184 0.875,4.96875 0.543705,1.434283 1.347662,2.842583 2.84375,3.5625 0.519133,0.249812 1.148883,0.598352 2,0.625 0.803343,0.02515 1.396487,-0.206001 2.0625,-0.4375 2.201931,-0.765377 3.410859,-2.863465 4.28125,-4.9375 0.885229,-2.109391 1.412229,-4.520231 1.125,-6.8125 -0.20801,-1.660033 -0.646137,-3.199166 -1.65625,-4.375 -1.041521,-1.212394 -2.572614,-1.782583 -4.125,-1.78125 z"
         id="path3816-2"
         style="opacity:0.1;fill:#d5eeff;fill-opacity:1;stroke:url(#linearGradient3195)"
         inkscape:connector-curvature="0" />
      <path
         d="m 68.03125,15.96875 c -2.71389,0.180358 -5.747522,1.262124 -8.21875,3.28125 -1.636771,1.337328 -2.942534,3.493576 -3.84375,5.78125 -0.901216,2.287674 -1.403403,4.678246 -1.03125,6.65625 0.193363,1.027738 0.659838,2.05018 1.25,2.9375 0.590162,0.88732 1.285936,1.669005 2.15625,2.125 1.575612,0.825502 3.517049,0.498858 5.46875,-0.40625 1.951701,-0.905108 3.999599,-2.451739 5.96875,-4.53125 2.12809,-2.247358 3.701106,-4.651539 4.5625,-6.90625 0.861394,-2.254711 1.06493,-4.435389 0.15625,-6.1875 -1.133858,-2.186287 -3.75745,-2.930186 -6.46875,-2.75 z M 47.9375,18.5 c -1.972777,0.0018 -3.696495,0.767118 -4.78125,2.21875 -1.084755,1.451632 -1.538257,3.436901 -1.53125,5.875 0.0049,1.689675 0.282,3.276739 0.78125,4.59375 0.49925,1.317011 1.180283,2.423928 2.3125,2.96875 0.535842,0.257853 0.964977,0.481292 1.5625,0.5 0.597523,0.01871 1.00818,-0.138876 1.6875,-0.375 1.717443,-0.596972 2.796557,-2.338422 3.625,-4.3125 0.828443,-1.974078 1.315883,-4.259096 1.0625,-6.28125 C 52.462147,22.138455 52.056536,20.845107 51.25,19.90625 50.443464,18.967393 49.226701,18.498893 47.9375,18.5 z m -13.84375,4.6875 c -0.939336,0.135317 -1.752442,0.660764 -2.46875,1.375 -0.677478,0.675517 -1.169029,1.347391 -1.375,2.15625 -0.205971,0.808859 -0.163747,1.612162 -0.15625,2.78125 0.01871,2.917422 0.828017,4.946142 2.8125,7.03125 0.785808,0.825652 1.610948,1.416855 2.625,1.46875 1.014052,0.0519 1.886802,-0.502843 2.625,-1.28125 1.672319,-1.763411 2.196845,-4.408917 1.6875,-7.15625 -0.378439,-2.041242 -1.088446,-3.680484 -2.0625,-4.8125 -0.974054,-1.132016 -2.318417,-1.759726 -3.6875,-1.5625 z M 24.5625,31.5 c -0.926663,0.150176 -1.777057,0.654241 -2.53125,1.40625 -1.263804,1.260153 -1.297047,3.160125 -0.84375,5 0.453297,1.839875 1.452256,3.734855 2.96875,5.0625 0.897382,0.785631 1.827397,1.276257 2.78125,1.375 0.953853,0.09874 1.910515,-0.279939 2.5625,-0.9375 1.30397,-1.315122 1.612842,-3.483676 1.03125,-6.09375 -0.413031,-1.853597 -1.170131,-3.361608 -2.1875,-4.40625 C 27.326381,31.861608 25.943442,31.276203 24.5625,31.5 z m 28.78125,5.96875 c -2.289284,-0.03924 -4.827685,0.150843 -7.46875,0.6875 -6.751776,1.37194 -12.215372,3.955301 -15.8125,7.5625 -2.044182,2.049903 -3.269144,4.049711 -4.25,6.9375 -2.520415,7.420513 1.998399,17.365859 10.34375,24.125 3.062545,2.48045 5.069906,3.60541 8.21875,4.65625 1.704393,0.568839 3.198209,0.693797 6.1875,0.59375 3.401208,-0.11385 4.457819,-0.311764 6.6875,-1.40625 3.49059,-1.71344 7.174788,-5.368847 8.875,-8.8125 0.976032,-1.976859 1.223942,-3.173219 1.125,-4.875 C 67.1628,65.437756 66.77357,64.131771 65.71875,63.34375 64.66393,62.555729 63.314475,62.420709 61.5,62.4375 c -2.558104,0.02366 -4.507206,0.317782 -6.03125,1.21875 -1.524044,0.900968 -2.47832,2.384744 -3.03125,4.28125 -0.361827,1.241038 -0.730862,1.992941 -1.0625,2.34375 C 51.043362,70.632059 50.766462,70.75 50.09375,70.75 49.016503,70.75 47.85052,70.262484 47,69.5625 c -0.85052,-0.699984 -1.34375,-1.582193 -1.34375,-2.28125 0,-0.226856 0.35238,-1.049348 1.6875,-2.28125 1.33512,-1.231902 3.522814,-2.836877 6.6875,-4.96875 4.522368,-3.046474 7.600451,-5.518794 9.5625,-7.84375 1.962049,-2.324956 2.79513,-4.63438 2.53125,-6.96875 -0.278299,-2.461916 -1.826126,-4.461062 -4.09375,-5.75 -2.267624,-1.288938 -5.242094,-1.940938 -8.6875,-2 z"
         id="path3812-8"
         style="opacity:0.15;fill:#d5eeff;fill-opacity:1;stroke:url(#linearGradient3197)"
         inkscape:connector-curvature="0" />
      <path
         d="M 44.711143,80.413429 C 41.643396,79.389653 39.859509,78.373445 36.847112,75.933611 28.761581,69.384906 24.552941,59.729866 26.843833,52.985106 c 0.946442,-2.786469 2.025188,-4.552138 3.976935,-6.509347 3.388916,-3.398404 8.673481,-5.905092 15.278508,-7.247213 10.25603,-2.083997 18.332735,0.514772 18.964322,6.101978 0.458551,4.056496 -2.653731,7.74886 -11.626156,13.793095 -6.369229,4.290595 -8.85019,6.576814 -8.85019,8.15546 0,2.269188 2.753014,4.544427 5.498751,4.544427 1.732531,0 2.622442,-0.935953 3.388634,-3.563929 1.014414,-3.479359 3.087612,-4.70648 8.028717,-4.752185 3.461191,-0.03203 4.536127,0.769924 4.69502,3.502649 0.09305,1.600437 -0.102706,2.407838 -1.048032,4.322505 -1.549572,3.138544 -5.181757,6.742147 -8.375978,8.310107 -2.179651,1.069928 -2.852527,1.213153 -6.231189,1.326248 -2.947264,0.09864 -4.241279,-0.02456 -5.832032,-0.555472 z M 24.863338,42.157209 c -2.613871,-2.288366 -3.738455,-6.856961 -2.091994,-8.498666 2.509598,-2.502328 5.693292,-0.659047 6.70519,3.882145 1.066459,4.786065 -1.493422,7.347789 -4.613196,4.616521 z m 8.811312,-6.376996 c -1.873111,-1.968089 -2.497028,-3.525983 -2.514681,-6.279063 -0.01497,-2.334375 -0.01781,-2.978056 1.207591,-4.19991 2.431751,-2.424716 5.48633,-0.622018 6.427709,4.455637 0.462951,2.497092 -0.05956,4.759289 -1.434053,6.208651 -1.268839,1.337951 -2.285445,1.28685 -3.686566,-0.185315 z m 25.172289,0.007 c -1.210195,-0.634074 -2.532972,-2.632624 -2.846942,-4.301397 -0.608945,-3.236563 1.715935,-9.102684 4.513517,-11.388455 4.566519,-3.73109 11.305254,-4.178931 13.023663,-0.865522 1.398067,2.695743 -0.444664,7.49606 -4.536276,11.816986 -3.787652,3.999928 -7.900309,5.919108 -10.153962,4.738363 z M 45.182993,33.199986 c -1.447262,-0.696422 -2.491709,-3.449913 -2.500733,-6.592741 -0.01319,-4.589484 1.811591,-7.037412 5.248224,-7.040492 2.096479,-0.0018 3.316227,1.411874 3.67272,4.256883 0.435585,3.476238 -1.754356,8.647098 -3.991523,9.424723 -1.350614,0.469459 -1.352644,0.469425 -2.428688,-0.04838 z"
         inkscape:connector-curvature="0"
         id="path3700-9"
         style="opacity:0.3;fill:#d5eeff;fill-opacity:1;stroke:url(#linearGradient3199)" />
      <path
         d="M 44.711143,79.413429 C 41.643396,78.389653 39.859509,77.373445 36.847112,74.933611 28.761581,68.384906 24.552941,58.729866 26.843833,51.985106 c 0.946442,-2.786469 2.025188,-4.552138 3.976935,-6.509347 3.388916,-3.398404 8.673481,-5.905092 15.278508,-7.247213 10.25603,-2.083997 18.332735,0.514772 18.964322,6.101978 0.458551,4.056496 -2.653731,7.74886 -11.626156,13.793095 -6.369229,4.290595 -8.85019,6.576814 -8.85019,8.15546 0,2.269188 2.753014,4.544427 5.498751,4.544427 1.732531,0 2.622442,-0.935953 3.388634,-3.563929 1.014414,-3.479359 3.087612,-4.70648 8.028717,-4.752185 3.461191,-0.03203 4.536127,0.769924 4.69502,3.502649 0.09305,1.600437 -0.102706,2.407838 -1.048032,4.322505 -1.549572,3.138544 -5.181757,6.742147 -8.375978,8.310107 -2.179651,1.069928 -2.852527,1.213153 -6.231189,1.326248 -2.947264,0.09864 -4.241279,-0.02456 -5.832032,-0.555472 z M 24.863338,41.157209 c -2.613871,-2.288366 -3.738455,-6.856961 -2.091994,-8.498666 2.509598,-2.502328 5.693292,-0.659047 6.70519,3.882145 1.066459,4.786065 -1.493422,7.347789 -4.613196,4.616521 z m 8.811312,-6.376996 c -1.873111,-1.968089 -2.497028,-3.525983 -2.514681,-6.279063 -0.01497,-2.334375 -0.01781,-2.978056 1.207591,-4.19991 2.431751,-2.424716 5.48633,-0.622018 6.427709,4.455637 0.462951,2.497092 -0.05956,4.759289 -1.434053,6.208651 -1.268839,1.337951 -2.285445,1.28685 -3.686566,-0.185315 z m 25.172289,0.007 c -1.210195,-0.634074 -2.532972,-2.632624 -2.846942,-4.301397 -0.608945,-3.236563 1.715935,-9.102684 4.513517,-11.388455 4.566519,-3.73109 11.305254,-4.178931 13.023663,-0.865522 1.398067,2.695743 -0.444664,7.49606 -4.536276,11.816986 -3.787652,3.999928 -7.900309,5.919108 -10.153962,4.738363 z M 45.182993,32.199986 c -1.447262,-0.696422 -2.491709,-3.449913 -2.500733,-6.592741 -0.01319,-4.589484 1.811591,-7.037412 5.248224,-7.040492 2.096479,-0.0018 3.316227,1.411874 3.67272,4.256883 0.435585,3.476238 -1.754356,8.647098 -3.991523,9.424723 -1.350614,0.469459 -1.352644,0.469425 -2.428688,-0.04838 z"
         inkscape:connector-curvature="0"
         id="path3456-9"
         style="fill:#d5eeff;fill-opacity:1;stroke:url(#linearGradient3201);filter:url(#filter4134)" />
      <path
         d="m 69,16 c -2.663154,-0.06402 -5.931333,0.995012 -8.5,3.09375 -2.622733,2.14291 -4.829841,7.430312 -4.59375,10.75 0.192217,-3.300692 2.221744,-7.811947 4.59375,-9.75 4.566519,-3.73109 11.312841,-4.188409 13.03125,-0.875 0.240133,0.463022 0.383559,1.019645 0.4375,1.59375 0.07547,-0.983747 -0.06005,-1.865955 -0.4375,-2.59375 C 72.779446,16.769134 71.071342,16.049791 69,16 z m -21.0625,2.5625 c -3.436633,0.0031 -5.26319,2.441766 -5.25,7.03125 5.8e-4,0.201875 0.02229,0.39553 0.03125,0.59375 0.100564,-4.310424 1.891779,-6.622018 5.21875,-6.625 2.096479,-0.0018 3.299757,1.404991 3.65625,4.25 0.01975,0.157606 0.02206,0.335995 0.03125,0.5 0.03123,-0.519337 0.0279,-1.027921 -0.03125,-1.5 -0.356493,-2.845009 -1.559771,-4.2518 -3.65625,-4.25 z M 34.25,23.25 c -0.643041,0.09263 -1.267062,0.456321 -1.875,1.0625 -1.12763,1.124366 -1.22362,1.805603 -1.21875,3.71875 0.05033,-1.223124 0.299699,-1.80236 1.21875,-2.71875 2.431751,-2.424716 5.464871,-0.640155 6.40625,4.4375 0.07232,0.390071 0.131517,0.779845 0.15625,1.15625 C 38.97183,30.216707 38.91975,29.497068 38.78125,28.75 38.075216,24.941759 36.179122,22.972097 34.25,23.25 z m -9,8.28125 c -0.829059,-0.01649 -1.684501,0.343023 -2.46875,1.125 -0.594626,0.592908 -0.817862,1.576358 -0.75,2.6875 0.08526,-0.694926 0.338385,-1.277074 0.75,-1.6875 2.509598,-2.502328 5.675602,-0.666192 6.6875,3.875 0.123188,0.552843 0.218857,1.073744 0.25,1.5625 0.05049,-0.751463 -0.03802,-1.611172 -0.25,-2.5625 -0.69568,-3.12207 -2.39482,-4.963721 -4.21875,-5 z m 26.34375,6 c -1.735061,0.07266 -3.576994,0.296751 -5.5,0.6875 -6.605027,1.342121 -11.892334,3.851596 -15.28125,7.25 C 28.860753,47.425959 27.790192,49.213531 26.84375,52 26.374572,53.381338 26.196478,54.86371 26.25,56.4375 26.292658,55.225 26.474684,54.086591 26.84375,53 c 0.946442,-2.786469 2.017003,-4.574041 3.96875,-6.53125 3.388916,-3.398404 8.676223,-5.907879 15.28125,-7.25 10.25603,-2.083997 18.337163,0.537794 18.96875,6.125 0.0095,0.08436 -0.0064,0.165927 0,0.25 0.03235,-0.417864 0.04778,-0.827302 0,-1.25 -0.513164,-4.539605 -5.950153,-7.127365 -13.46875,-6.8125 z M 61.5,62.5 c -4.941105,0.0457 -7.016836,1.270641 -8.03125,4.75 -0.766192,2.627976 -1.642469,3.5625 -3.375,3.5625 -2.50857,0 -5.021804,-1.878912 -5.4375,-3.9375 -0.03366,0.138618 -0.0625,0.277713 -0.0625,0.40625 0,2.269188 2.754263,4.53125 5.5,4.53125 1.732531,0 2.608808,-0.934524 3.375,-3.5625 1.014414,-3.479359 3.090145,-4.704295 8.03125,-4.75 3.461191,-0.03203 4.528607,0.767275 4.6875,3.5 0.0053,0.09138 -0.0033,0.163438 0,0.25 0.03303,-0.377743 0.02704,-0.784964 0,-1.25 C 66.028607,63.267275 64.961191,62.46797 61.5,62.5 z"
         inkscape:connector-curvature="0"
         id="path3682-8"
         style="opacity:0.75;fill:#d5eeff;fill-opacity:1;stroke:url(#linearGradient3203)" />
      <path
         d="M 73.96875,19.8125 C 73.764686,22.472537 71.986961,25.908135 69,29.0625 65.212348,33.062428 61.097403,34.961995 58.84375,33.78125 57.633555,33.147176 56.31397,31.168773 56,29.5 55.96549,29.316595 55.92236,29.105413 55.90625,28.90625 55.87708,29.474621 55.91065,30.025202 56,30.5 c 0.31397,1.668773 1.633555,3.647176 2.84375,4.28125 2.253653,1.180745 6.368598,-0.718822 10.15625,-4.71875 3.388835,-3.578762 5.228858,-7.481628 4.96875,-10.25 z m -22.34375,3.5 c -0.198738,3.304893 -2.066644,7.265478 -4,7.9375 -1.350614,0.469459 -1.361456,0.455305 -2.4375,-0.0625 -1.354299,-0.651688 -2.338274,-3.11229 -2.46875,-6 -0.0033,0.142078 -0.03167,0.259801 -0.03125,0.40625 0.009,3.142828 1.052738,5.897328 2.5,6.59375 1.076044,0.517805 1.086886,0.531959 2.4375,0.0625 2.135738,-0.742369 4.193617,-5.484119 4,-8.9375 z M 31.15625,27.5 c -0.0042,0.310562 -0.0025,0.60266 0,1 0.01765,2.75308 0.658139,4.313161 2.53125,6.28125 1.401121,1.472165 2.418661,1.525451 3.6875,0.1875 1.159783,-1.222957 1.696097,-3.029301 1.5625,-5.0625 -0.08042,1.615271 -0.599221,3.046751 -1.5625,4.0625 -1.268839,1.337951 -2.286379,1.284665 -3.6875,-0.1875 C 31.814389,31.813161 31.173903,30.25308 31.15625,27.5 z m -9.125,6.96875 c -0.201287,2.078685 0.919539,5.002911 2.84375,6.6875 2.759406,2.415777 5.082217,0.679994 4.84375,-3.0625 -0.203517,3.029094 -2.344095,4.250873 -4.84375,2.0625 -1.633669,-1.430229 -2.686515,-3.747112 -2.84375,-5.6875 z m 43.03125,10.125 c -0.278134,3.592236 -3.587527,7.116841 -11.625,12.53125 -6.369229,4.290595 -8.84375,6.577604 -8.84375,8.15625 0,0.196004 0.0232,0.399126 0.0625,0.59375 0.379685,-1.563849 2.930616,-3.808754 8.78125,-7.75 8.785823,-5.918532 11.927607,-9.572798 11.625,-13.53125 z M 26.25,55.4375 c -0.222132,6.313808 3.81081,14.006301 10.59375,19.5 3.012397,2.439834 4.807253,3.444974 7.875,4.46875 1.590753,0.530912 2.865236,0.66114 5.8125,0.5625 3.378662,-0.113095 4.070349,-0.242572 6.25,-1.3125 3.194221,-1.56796 6.825428,-5.173956 8.375,-8.3125 0.891351,-1.805347 1.086474,-2.664239 1.03125,-4.09375 -0.08065,0.922274 -0.360605,1.735424 -1.03125,3.09375 -1.549572,3.138544 -5.180779,6.74454 -8.375,8.3125 -2.179651,1.069928 -2.871338,1.199405 -6.25,1.3125 -2.947264,0.09864 -4.221747,-0.03159 -5.8125,-0.5625 -3.067747,-1.023776 -4.862603,-2.028916 -7.875,-4.46875 C 30.414149,68.72998 26.457812,61.548171 26.25,55.4375 z"
         inkscape:connector-curvature="0"
         id="path3691-9"
         style="opacity:0.15;fill:#d5eeff;fill-opacity:1;stroke:url(#linearGradient3115)" />
    </g>
  </g>
</svg>
